<mxfile host="app.diagrams.net" modified="2024-06-21T17:51:41.559Z" agent="Mozilla/5.0 (Windows NT 10.0; Win64; x64) AppleWebKit/537.36 (KHTML, like Gecko) Chrome/126.0.0.0 Safari/537.36" etag="4_3gerNfrJ4JS5V8GQAM" version="24.5.5" type="github">
  <diagram name="Página-1" id="KaL2LrW1i0_dixC7cISi">
    <mxGraphModel dx="4260" dy="2376" grid="1" gridSize="10" guides="1" tooltips="1" connect="1" arrows="1" fold="1" page="1" pageScale="1" pageWidth="827" pageHeight="1169" math="0" shadow="0">
      <root>
        <mxCell id="0" />
        <mxCell id="1" parent="0" />
        <mxCell id="ifjnTFT7KgHq2K2mt3Lb-4" value="" style="verticalLabelPosition=bottom;verticalAlign=top;html=1;shape=mxgraph.basic.rect;fillColor2=none;strokeWidth=1;size=20;indent=5;" parent="1" vertex="1">
          <mxGeometry x="-500" y="-930" width="1820" height="4130" as="geometry" />
        </mxCell>
        <mxCell id="lIRGwpxtklxmiI4k7qlp-2" value="Iniciador" style="swimlane;html=1;startSize=20;fontStyle=0;collapsible=0;horizontal=1;swimlaneLine=1;strokeWidth=2;swimlaneFillColor=#ffffff;whiteSpace=wrap;rounded=1;" parent="1" vertex="1">
          <mxGeometry x="210.5" y="-831" width="419.5" height="3921" as="geometry" />
        </mxCell>
        <mxCell id="lIRGwpxtklxmiI4k7qlp-8" value="Seleciona&amp;nbsp; o produto pagamento em lote" style="points=[[0.25,0,0],[0.5,0,0],[0.75,0,0],[1,0.25,0],[1,0.5,0],[1,0.75,0],[0.75,1,0],[0.5,1,0],[0.25,1,0],[0,0.75,0],[0,0.5,0],[0,0.25,0]];shape=mxgraph.bpmn.task;whiteSpace=wrap;rectStyle=rounded;size=10;html=1;container=1;expand=0;collapsible=0;taskMarker=user;" parent="lIRGwpxtklxmiI4k7qlp-2" vertex="1">
          <mxGeometry x="134" y="70" width="120" height="80" as="geometry" />
        </mxCell>
        <mxCell id="lIRGwpxtklxmiI4k7qlp-10" style="edgeStyle=orthogonalEdgeStyle;rounded=0;orthogonalLoop=1;jettySize=auto;html=1;entryX=0.5;entryY=0;entryDx=0;entryDy=0;entryPerimeter=0;" parent="lIRGwpxtklxmiI4k7qlp-2" source="lIRGwpxtklxmiI4k7qlp-8" target="lIRGwpxtklxmiI4k7qlp-26" edge="1">
          <mxGeometry relative="1" as="geometry">
            <mxPoint x="194" y="200" as="targetPoint" />
          </mxGeometry>
        </mxCell>
        <mxCell id="lIRGwpxtklxmiI4k7qlp-24" value="Recebe o sucesso na criação do consentimento" style="points=[[0.25,0,0],[0.5,0,0],[0.75,0,0],[1,0.25,0],[1,0.5,0],[1,0.75,0],[0.75,1,0],[0.5,1,0],[0.25,1,0],[0,0.75,0],[0,0.5,0],[0,0.25,0]];shape=mxgraph.bpmn.task;whiteSpace=wrap;rectStyle=rounded;size=10;html=1;container=1;expand=0;collapsible=0;taskMarker=receive;" parent="lIRGwpxtklxmiI4k7qlp-2" vertex="1">
          <mxGeometry x="133" y="861" width="120" height="80" as="geometry" />
        </mxCell>
        <mxCell id="lIRGwpxtklxmiI4k7qlp-26" value="Informa os dados dos recebores e pagamentos" style="points=[[0.25,0,0],[0.5,0,0],[0.75,0,0],[1,0.25,0],[1,0.5,0],[1,0.75,0],[0.75,1,0],[0.5,1,0],[0.25,1,0],[0,0.75,0],[0,0.5,0],[0,0.25,0]];shape=mxgraph.bpmn.task;whiteSpace=wrap;rectStyle=rounded;size=10;html=1;container=1;expand=0;collapsible=0;taskMarker=user;" parent="lIRGwpxtklxmiI4k7qlp-2" vertex="1">
          <mxGeometry x="134" y="290" width="120" height="80" as="geometry" />
        </mxCell>
        <mxCell id="lIRGwpxtklxmiI4k7qlp-27" style="edgeStyle=orthogonalEdgeStyle;rounded=0;orthogonalLoop=1;jettySize=auto;html=1;entryX=0.5;entryY=0;entryDx=0;entryDy=0;entryPerimeter=0;" parent="lIRGwpxtklxmiI4k7qlp-2" source="lIRGwpxtklxmiI4k7qlp-26" target="lIRGwpxtklxmiI4k7qlp-39" edge="1">
          <mxGeometry relative="1" as="geometry">
            <mxPoint x="195" y="450" as="targetPoint" />
          </mxGeometry>
        </mxCell>
        <mxCell id="lIRGwpxtklxmiI4k7qlp-39" value="Exibe a tela de resumo das transações para o Pagador" style="points=[[0.25,0,0],[0.5,0,0],[0.75,0,0],[1,0.25,0],[1,0.5,0],[1,0.75,0],[0.75,1,0],[0.5,1,0],[0.25,1,0],[0,0.75,0],[0,0.5,0],[0,0.25,0]];shape=mxgraph.bpmn.task;whiteSpace=wrap;rectStyle=rounded;size=10;html=1;container=1;expand=0;collapsible=0;taskMarker=script;" parent="lIRGwpxtklxmiI4k7qlp-2" vertex="1">
          <mxGeometry x="134" y="462" width="120" height="80" as="geometry" />
        </mxCell>
        <mxCell id="lIRGwpxtklxmiI4k7qlp-48" value="Solicita consentimento para criação do consentimento" style="points=[[0.25,0,0],[0.5,0,0],[0.75,0,0],[1,0.25,0],[1,0.5,0],[1,0.75,0],[0.75,1,0],[0.5,1,0],[0.25,1,0],[0,0.75,0],[0,0.5,0],[0,0.25,0]];shape=mxgraph.bpmn.task;whiteSpace=wrap;rectStyle=rounded;size=10;html=1;container=1;expand=0;collapsible=0;taskMarker=send;" parent="lIRGwpxtklxmiI4k7qlp-2" vertex="1">
          <mxGeometry x="132" y="631" width="120" height="80" as="geometry" />
        </mxCell>
        <mxCell id="lIRGwpxtklxmiI4k7qlp-59" value="Consulta estado do consentimento" style="points=[[0.25,0,0],[0.5,0,0],[0.75,0,0],[1,0.25,0],[1,0.5,0],[1,0.75,0],[0.75,1,0],[0.5,1,0],[0.25,1,0],[0,0.75,0],[0,0.5,0],[0,0.25,0]];shape=mxgraph.bpmn.task;whiteSpace=wrap;rectStyle=rounded;size=10;html=1;container=1;expand=0;collapsible=0;taskMarker=abstract;isLoopStandard=1;" parent="lIRGwpxtklxmiI4k7qlp-2" vertex="1">
          <mxGeometry x="123" y="1980" width="120" height="80" as="geometry" />
        </mxCell>
        <mxCell id="lIRGwpxtklxmiI4k7qlp-65" value="Envia as solicitações de pagamento previstas para o dia" style="points=[[0.25,0,0],[0.5,0,0],[0.75,0,0],[1,0.25,0],[1,0.5,0],[1,0.75,0],[0.75,1,0],[0.5,1,0],[0.25,1,0],[0,0.75,0],[0,0.5,0],[0,0.25,0]];shape=mxgraph.bpmn.task;whiteSpace=wrap;rectStyle=rounded;size=10;html=1;container=1;expand=0;collapsible=0;taskMarker=send;isLoopStandard=1;" parent="lIRGwpxtklxmiI4k7qlp-2" vertex="1">
          <mxGeometry x="123" y="2270" width="120" height="80" as="geometry" />
        </mxCell>
        <mxCell id="lIRGwpxtklxmiI4k7qlp-83" value="Recebe o sucesso na criação pagamento" style="points=[[0.25,0,0],[0.5,0,0],[0.75,0,0],[1,0.25,0],[1,0.5,0],[1,0.75,0],[0.75,1,0],[0.5,1,0],[0.25,1,0],[0,0.75,0],[0,0.5,0],[0,0.25,0]];shape=mxgraph.bpmn.task;whiteSpace=wrap;rectStyle=rounded;size=10;html=1;container=1;expand=0;collapsible=0;taskMarker=receive;" parent="lIRGwpxtklxmiI4k7qlp-2" vertex="1">
          <mxGeometry x="152" y="2566" width="120" height="80" as="geometry" />
        </mxCell>
        <mxCell id="lIRGwpxtklxmiI4k7qlp-119" style="edgeStyle=orthogonalEdgeStyle;rounded=0;orthogonalLoop=1;jettySize=auto;html=1;" parent="lIRGwpxtklxmiI4k7qlp-2" source="lIRGwpxtklxmiI4k7qlp-115" target="lIRGwpxtklxmiI4k7qlp-118" edge="1">
          <mxGeometry relative="1" as="geometry" />
        </mxCell>
        <mxCell id="lIRGwpxtklxmiI4k7qlp-115" value="Recebe atualização do estado do consentimento" style="points=[[0.25,0,0],[0.5,0,0],[0.75,0,0],[1,0.25,0],[1,0.5,0],[1,0.75,0],[0.75,1,0],[0.5,1,0],[0.25,1,0],[0,0.75,0],[0,0.5,0],[0,0.25,0]];shape=mxgraph.bpmn.task;whiteSpace=wrap;rectStyle=rounded;size=10;html=1;container=1;expand=0;collapsible=0;taskMarker=receive;" parent="lIRGwpxtklxmiI4k7qlp-2" vertex="1">
          <mxGeometry x="131" y="3480" width="120" height="80" as="geometry" />
        </mxCell>
        <mxCell id="lIRGwpxtklxmiI4k7qlp-118" value="" style="points=[[0.145,0.145,0],[0.5,0,0],[0.855,0.145,0],[1,0.5,0],[0.855,0.855,0],[0.5,1,0],[0.145,0.855,0],[0,0.5,0]];shape=mxgraph.bpmn.event;html=1;verticalLabelPosition=bottom;labelBackgroundColor=#ffffff;verticalAlign=top;align=center;perimeter=ellipsePerimeter;outlineConnect=0;aspect=fixed;outline=end;symbol=terminate2;" parent="lIRGwpxtklxmiI4k7qlp-2" vertex="1">
          <mxGeometry x="166" y="3630" width="50" height="50" as="geometry" />
        </mxCell>
        <mxCell id="ujyuRZ4Cdycu08kkKVto-6" value="Há pagamentos para&lt;br&gt;&amp;nbsp;o dia?" style="points=[[0.25,0.25,0],[0.5,0,0],[0.75,0.25,0],[1,0.5,0],[0.75,0.75,0],[0.5,1,0],[0.25,0.75,0],[0,0.5,0]];shape=mxgraph.bpmn.gateway2;html=1;verticalLabelPosition=middle;labelBackgroundColor=#ffffff;verticalAlign=middle;align=left;perimeter=rhombusPerimeter;outlineConnect=0;outline=none;symbol=none;gwType=exclusive;labelPosition=right;" parent="lIRGwpxtklxmiI4k7qlp-2" vertex="1">
          <mxGeometry x="158" y="2140" width="50" height="50" as="geometry" />
        </mxCell>
        <mxCell id="ujyuRZ4Cdycu08kkKVto-9" value="" style="points=[[0.145,0.145,0],[0.5,0,0],[0.855,0.145,0],[1,0.5,0],[0.855,0.855,0],[0.5,1,0],[0.145,0.855,0],[0,0.5,0]];shape=mxgraph.bpmn.event;html=1;verticalLabelPosition=bottom;labelBackgroundColor=#ffffff;verticalAlign=top;align=center;perimeter=ellipsePerimeter;outlineConnect=0;aspect=fixed;outline=end;symbol=terminate2;" parent="lIRGwpxtklxmiI4k7qlp-2" vertex="1">
          <mxGeometry x="33.5" y="2140" width="50" height="50" as="geometry" />
        </mxCell>
        <mxCell id="ujyuRZ4Cdycu08kkKVto-10" style="edgeStyle=orthogonalEdgeStyle;rounded=0;orthogonalLoop=1;jettySize=auto;html=1;entryX=1;entryY=0.5;entryDx=0;entryDy=0;entryPerimeter=0;endArrow=classic;endFill=1;startArrow=dash;startFill=0;" parent="lIRGwpxtklxmiI4k7qlp-2" source="ujyuRZ4Cdycu08kkKVto-6" target="ujyuRZ4Cdycu08kkKVto-9" edge="1">
          <mxGeometry relative="1" as="geometry" />
        </mxCell>
        <mxCell id="a4BlbPkpiTqO5UuftQ6E-5" style="edgeStyle=orthogonalEdgeStyle;rounded=0;orthogonalLoop=1;jettySize=auto;html=1;entryX=0.5;entryY=0;entryDx=0;entryDy=0;entryPerimeter=0;" parent="lIRGwpxtklxmiI4k7qlp-2" source="ujyuRZ4Cdycu08kkKVto-6" target="lIRGwpxtklxmiI4k7qlp-65" edge="1">
          <mxGeometry relative="1" as="geometry" />
        </mxCell>
        <mxCell id="a4BlbPkpiTqO5UuftQ6E-7" style="edgeStyle=orthogonalEdgeStyle;rounded=0;orthogonalLoop=1;jettySize=auto;html=1;entryX=0.5;entryY=0;entryDx=0;entryDy=0;entryPerimeter=0;" parent="lIRGwpxtklxmiI4k7qlp-2" source="lIRGwpxtklxmiI4k7qlp-59" target="ujyuRZ4Cdycu08kkKVto-6" edge="1">
          <mxGeometry relative="1" as="geometry" />
        </mxCell>
        <mxCell id="a4BlbPkpiTqO5UuftQ6E-11" value="Envia os rascunhos de pagamento" style="points=[[0.25,0,0],[0.5,0,0],[0.75,0,0],[1,0.25,0],[1,0.5,0],[1,0.75,0],[0.75,1,0],[0.5,1,0],[0.25,1,0],[0,0.75,0],[0,0.5,0],[0,0.25,0]];shape=mxgraph.bpmn.task;whiteSpace=wrap;rectStyle=rounded;size=10;html=1;container=1;expand=0;collapsible=0;taskMarker=send;isLoopStandard=1;" parent="lIRGwpxtklxmiI4k7qlp-2" vertex="1">
          <mxGeometry x="133" y="1020" width="120" height="80" as="geometry" />
        </mxCell>
        <mxCell id="a4BlbPkpiTqO5UuftQ6E-12" style="edgeStyle=orthogonalEdgeStyle;rounded=0;orthogonalLoop=1;jettySize=auto;html=1;entryX=0.5;entryY=0;entryDx=0;entryDy=0;entryPerimeter=0;" parent="lIRGwpxtklxmiI4k7qlp-2" source="lIRGwpxtklxmiI4k7qlp-24" target="a4BlbPkpiTqO5UuftQ6E-11" edge="1">
          <mxGeometry relative="1" as="geometry" />
        </mxCell>
        <mxCell id="a4BlbPkpiTqO5UuftQ6E-23" value="Recebe o sucesso no cadastro dos rascunhos" style="points=[[0.25,0,0],[0.5,0,0],[0.75,0,0],[1,0.25,0],[1,0.5,0],[1,0.75,0],[0.75,1,0],[0.5,1,0],[0.25,1,0],[0,0.75,0],[0,0.5,0],[0,0.25,0]];shape=mxgraph.bpmn.task;whiteSpace=wrap;rectStyle=rounded;size=10;html=1;container=1;expand=0;collapsible=0;taskMarker=receive;" parent="lIRGwpxtklxmiI4k7qlp-2" vertex="1">
          <mxGeometry x="131" y="1341" width="120" height="80" as="geometry" />
        </mxCell>
        <mxCell id="a4BlbPkpiTqO5UuftQ6E-32" style="edgeStyle=orthogonalEdgeStyle;rounded=0;orthogonalLoop=1;jettySize=auto;html=1;entryX=0.5;entryY=0;entryDx=0;entryDy=0;entryPerimeter=0;" parent="lIRGwpxtklxmiI4k7qlp-2" source="a4BlbPkpiTqO5UuftQ6E-23" edge="1">
          <mxGeometry relative="1" as="geometry">
            <mxPoint x="190.5" y="1490" as="targetPoint" />
          </mxGeometry>
        </mxCell>
        <mxCell id="a4BlbPkpiTqO5UuftQ6E-36" style="edgeStyle=orthogonalEdgeStyle;rounded=0;orthogonalLoop=1;jettySize=auto;html=1;entryX=0;entryY=0.5;entryDx=0;entryDy=0;entryPerimeter=0;dashed=1;endArrow=none;endFill=0;" parent="lIRGwpxtklxmiI4k7qlp-2" source="a4BlbPkpiTqO5UuftQ6E-35" edge="1">
          <mxGeometry relative="1" as="geometry">
            <mxPoint x="130.5" y="1530" as="targetPoint" />
            <Array as="points">
              <mxPoint x="90" y="1483" />
              <mxPoint x="90" y="1530" />
            </Array>
          </mxGeometry>
        </mxCell>
        <mxCell id="a4BlbPkpiTqO5UuftQ6E-37" value="Solicita mudança no estado do consentimento" style="points=[[0.25,0,0],[0.5,0,0],[0.75,0,0],[1,0.25,0],[1,0.5,0],[1,0.75,0],[0.75,1,0],[0.5,1,0],[0.25,1,0],[0,0.75,0],[0,0.5,0],[0,0.25,0]];shape=mxgraph.bpmn.task;whiteSpace=wrap;rectStyle=rounded;size=10;html=1;container=1;expand=0;collapsible=0;taskMarker=send;" parent="lIRGwpxtklxmiI4k7qlp-2" vertex="1">
          <mxGeometry x="132" y="1490" width="120" height="80" as="geometry" />
        </mxCell>
        <mxCell id="lIRGwpxtklxmiI4k7qlp-61" value="Loop até que o consentimento esteja em AUTHORISED" style="text;html=1;strokeColor=none;fillColor=none;align=left;verticalAlign=middle;whiteSpace=wrap;rounded=0;" parent="lIRGwpxtklxmiI4k7qlp-2" vertex="1">
          <mxGeometry x="284" y="1945" width="110" height="150" as="geometry" />
        </mxCell>
        <mxCell id="lIRGwpxtklxmiI4k7qlp-60" value="" style="html=1;shape=mxgraph.flowchart.annotation_2;align=left;labelPosition=right;" parent="lIRGwpxtklxmiI4k7qlp-2" vertex="1">
          <mxGeometry x="254" y="1975" width="41" height="90" as="geometry" />
        </mxCell>
        <mxCell id="lIRGwpxtklxmiI4k7qlp-62" style="edgeStyle=orthogonalEdgeStyle;rounded=0;orthogonalLoop=1;jettySize=auto;html=1;entryX=0;entryY=0.5;entryDx=0;entryDy=0;entryPerimeter=0;dashed=1;endArrow=none;endFill=0;" parent="lIRGwpxtklxmiI4k7qlp-2" source="lIRGwpxtklxmiI4k7qlp-59" target="lIRGwpxtklxmiI4k7qlp-60" edge="1">
          <mxGeometry relative="1" as="geometry" />
        </mxCell>
        <mxCell id="a4BlbPkpiTqO5UuftQ6E-44" value="Recebe sucesso na alteração do estado" style="points=[[0.25,0,0],[0.5,0,0],[0.75,0,0],[1,0.25,0],[1,0.5,0],[1,0.75,0],[0.75,1,0],[0.5,1,0],[0.25,1,0],[0,0.75,0],[0,0.5,0],[0,0.25,0]];shape=mxgraph.bpmn.task;whiteSpace=wrap;rectStyle=rounded;size=10;html=1;container=1;expand=0;collapsible=0;taskMarker=receive;" parent="lIRGwpxtklxmiI4k7qlp-2" vertex="1">
          <mxGeometry x="133" y="1620" width="120" height="80" as="geometry" />
        </mxCell>
        <mxCell id="a4BlbPkpiTqO5UuftQ6E-50" style="edgeStyle=orthogonalEdgeStyle;rounded=0;orthogonalLoop=1;jettySize=auto;html=1;" parent="lIRGwpxtklxmiI4k7qlp-2" source="a4BlbPkpiTqO5UuftQ6E-46" target="a4BlbPkpiTqO5UuftQ6E-49" edge="1">
          <mxGeometry relative="1" as="geometry" />
        </mxCell>
        <mxCell id="a4BlbPkpiTqO5UuftQ6E-46" value="" style="points=[[0.25,0.25,0],[0.5,0,0],[0.75,0.25,0],[1,0.5,0],[0.75,0.75,0],[0.5,1,0],[0.25,0.75,0],[0,0.5,0]];shape=mxgraph.bpmn.gateway2;html=1;verticalLabelPosition=bottom;labelBackgroundColor=#ffffff;verticalAlign=top;align=center;perimeter=rhombusPerimeter;outlineConnect=0;outline=none;symbol=none;gwType=parallel;" parent="lIRGwpxtklxmiI4k7qlp-2" vertex="1">
          <mxGeometry x="269" y="1796" width="50" height="50" as="geometry" />
        </mxCell>
        <mxCell id="a4BlbPkpiTqO5UuftQ6E-47" style="edgeStyle=orthogonalEdgeStyle;rounded=0;orthogonalLoop=1;jettySize=auto;html=1;entryX=0.5;entryY=0;entryDx=0;entryDy=0;entryPerimeter=0;" parent="lIRGwpxtklxmiI4k7qlp-2" source="a4BlbPkpiTqO5UuftQ6E-44" target="a4BlbPkpiTqO5UuftQ6E-46" edge="1">
          <mxGeometry relative="1" as="geometry">
            <Array as="points">
              <mxPoint x="193" y="1740" />
              <mxPoint x="294" y="1740" />
            </Array>
          </mxGeometry>
        </mxCell>
        <mxCell id="a4BlbPkpiTqO5UuftQ6E-49" value="Solicita aprovação do Pagador" style="points=[[0.25,0,0],[0.5,0,0],[0.75,0,0],[1,0.25,0],[1,0.5,0],[1,0.75,0],[0.75,1,0],[0.5,1,0],[0.25,1,0],[0,0.75,0],[0,0.5,0],[0,0.25,0]];shape=mxgraph.bpmn.task;whiteSpace=wrap;rectStyle=rounded;size=10;html=1;container=1;expand=0;collapsible=0;taskMarker=script;" parent="lIRGwpxtklxmiI4k7qlp-2" vertex="1">
          <mxGeometry x="47" y="1781" width="120" height="80" as="geometry" />
        </mxCell>
        <mxCell id="a4BlbPkpiTqO5UuftQ6E-52" style="edgeStyle=orthogonalEdgeStyle;rounded=0;orthogonalLoop=1;jettySize=auto;html=1;entryX=0.5;entryY=0;entryDx=0;entryDy=0;entryPerimeter=0;" parent="lIRGwpxtklxmiI4k7qlp-2" source="a4BlbPkpiTqO5UuftQ6E-46" target="lIRGwpxtklxmiI4k7qlp-59" edge="1">
          <mxGeometry relative="1" as="geometry">
            <Array as="points">
              <mxPoint x="294" y="1930" />
              <mxPoint x="183" y="1930" />
            </Array>
          </mxGeometry>
        </mxCell>
        <mxCell id="lIRGwpxtklxmiI4k7qlp-90" style="edgeStyle=orthogonalEdgeStyle;rounded=0;orthogonalLoop=1;jettySize=auto;html=1;entryX=0;entryY=0.5;entryDx=0;entryDy=0;entryPerimeter=0;endArrow=none;endFill=0;dashed=1;" parent="lIRGwpxtklxmiI4k7qlp-2" target="lIRGwpxtklxmiI4k7qlp-88" edge="1">
          <mxGeometry relative="1" as="geometry">
            <mxPoint x="252" y="2834" as="sourcePoint" />
          </mxGeometry>
        </mxCell>
        <mxCell id="kl3Dmiq_TUmMfXFTaF4l-30" style="edgeStyle=orthogonalEdgeStyle;rounded=0;orthogonalLoop=1;jettySize=auto;html=1;entryX=0;entryY=0.5;entryDx=0;entryDy=0;entryPerimeter=0;exitX=0;exitY=0.5;exitDx=0;exitDy=0;exitPerimeter=0;endArrow=none;endFill=0;dashed=1;dashPattern=1 2;" parent="lIRGwpxtklxmiI4k7qlp-2" source="kl3Dmiq_TUmMfXFTaF4l-26" target="a4BlbPkpiTqO5UuftQ6E-11" edge="1">
          <mxGeometry relative="1" as="geometry" />
        </mxCell>
        <mxCell id="kl3Dmiq_TUmMfXFTaF4l-32" style="edgeStyle=orthogonalEdgeStyle;rounded=0;orthogonalLoop=1;jettySize=auto;html=1;entryX=0;entryY=0.5;entryDx=0;entryDy=0;entryPerimeter=0;exitX=0;exitY=0.5;exitDx=0;exitDy=0;exitPerimeter=0;endArrow=none;endFill=0;dashed=1;dashPattern=1 2;" parent="lIRGwpxtklxmiI4k7qlp-2" source="kl3Dmiq_TUmMfXFTaF4l-31" target="lIRGwpxtklxmiI4k7qlp-65" edge="1">
          <mxGeometry relative="1" as="geometry" />
        </mxCell>
        <mxCell id="kl3Dmiq_TUmMfXFTaF4l-33" value="" style="group" parent="lIRGwpxtklxmiI4k7qlp-2" vertex="1" connectable="0">
          <mxGeometry x="108.46" y="2370" width="243.54000000000002" height="145" as="geometry" />
        </mxCell>
        <mxCell id="a4BlbPkpiTqO5UuftQ6E-56" value="Loop para envio de todos os pagamentos previstos para o dia. Caso exista ordem preferencial de liquidação, fica a cargo do iniciador informar os pagamentos em ordem." style="text;html=1;align=left;verticalAlign=top;whiteSpace=wrap;rounded=0;" parent="kl3Dmiq_TUmMfXFTaF4l-33" vertex="1">
          <mxGeometry x="14.540000000000006" y="5" width="229" height="140" as="geometry" />
        </mxCell>
        <mxCell id="kl3Dmiq_TUmMfXFTaF4l-31" value="" style="html=1;shape=mxgraph.flowchart.annotation_2;align=left;labelPosition=right;" parent="kl3Dmiq_TUmMfXFTaF4l-33" vertex="1">
          <mxGeometry width="18.54" height="90" as="geometry" />
        </mxCell>
        <mxCell id="kl3Dmiq_TUmMfXFTaF4l-34" value="" style="group" parent="lIRGwpxtklxmiI4k7qlp-2" vertex="1" connectable="0">
          <mxGeometry x="71.46" y="1130" width="243.04000000000002" height="78" as="geometry" />
        </mxCell>
        <mxCell id="a4BlbPkpiTqO5UuftQ6E-18" value="Loop para envio de todos os rascunhos de pagamentos. De 50 em 50, até o máximo de 500." style="text;html=1;align=left;verticalAlign=top;whiteSpace=wrap;rounded=0;" parent="kl3Dmiq_TUmMfXFTaF4l-34" vertex="1">
          <mxGeometry x="12.040000000000006" y="8" width="231" height="70" as="geometry" />
        </mxCell>
        <mxCell id="kl3Dmiq_TUmMfXFTaF4l-26" value="" style="html=1;shape=mxgraph.flowchart.annotation_2;align=left;labelPosition=right;" parent="kl3Dmiq_TUmMfXFTaF4l-34" vertex="1">
          <mxGeometry width="18.54" height="70" as="geometry" />
        </mxCell>
        <mxCell id="hj-Veea-2y6k5cavyvsn-4" value="Envia o comprovante do pagamento" style="points=[[0.25,0,0],[0.5,0,0],[0.75,0,0],[1,0.25,0],[1,0.5,0],[1,0.75,0],[0.75,1,0],[0.5,1,0],[0.25,1,0],[0,0.75,0],[0,0.5,0],[0,0.25,0]];shape=mxgraph.bpmn.task;whiteSpace=wrap;rectStyle=rounded;size=10;html=1;container=1;expand=0;collapsible=0;taskMarker=script;" vertex="1" parent="lIRGwpxtklxmiI4k7qlp-2">
          <mxGeometry x="44" y="3091" width="120" height="80" as="geometry" />
        </mxCell>
        <mxCell id="hj-Veea-2y6k5cavyvsn-18" value="Possui &lt;br&gt;Webhook?" style="points=[[0.25,0.25,0],[0.5,0,0],[0.75,0.25,0],[1,0.5,0],[0.75,0.75,0],[0.5,1,0],[0.25,0.75,0],[0,0.5,0]];shape=mxgraph.bpmn.gateway2;html=1;verticalLabelPosition=middle;labelBackgroundColor=#ffffff;verticalAlign=middle;align=left;perimeter=rhombusPerimeter;outlineConnect=0;outline=none;symbol=none;gwType=exclusive;labelPosition=right;" vertex="1" parent="lIRGwpxtklxmiI4k7qlp-2">
          <mxGeometry x="188" y="2725" width="50" height="50" as="geometry" />
        </mxCell>
        <mxCell id="hj-Veea-2y6k5cavyvsn-20" value="Aguarda notificação de alteração de estado" style="points=[[0.25,0,0],[0.5,0,0],[0.75,0,0],[1,0.25,0],[1,0.5,0],[1,0.75,0],[0.75,1,0],[0.5,1,0],[0.25,1,0],[0,0.75,0],[0,0.5,0],[0,0.25,0]];shape=mxgraph.bpmn.task;whiteSpace=wrap;rectStyle=rounded;size=10;html=1;container=1;expand=0;collapsible=0;taskMarker=script;" vertex="1" parent="lIRGwpxtklxmiI4k7qlp-2">
          <mxGeometry x="269" y="2856" width="120" height="80" as="geometry" />
        </mxCell>
        <mxCell id="hj-Veea-2y6k5cavyvsn-21" style="edgeStyle=orthogonalEdgeStyle;rounded=0;orthogonalLoop=1;jettySize=auto;html=1;entryX=0.5;entryY=0;entryDx=0;entryDy=0;entryPerimeter=0;" edge="1" parent="lIRGwpxtklxmiI4k7qlp-2" source="hj-Veea-2y6k5cavyvsn-18" target="hj-Veea-2y6k5cavyvsn-20">
          <mxGeometry relative="1" as="geometry" />
        </mxCell>
        <mxCell id="hj-Veea-2y6k5cavyvsn-14" value="Consulta estado do pagamento via pooling&amp;nbsp;" style="points=[[0.25,0,0],[0.5,0,0],[0.75,0,0],[1,0.25,0],[1,0.5,0],[1,0.75,0],[0.75,1,0],[0.5,1,0],[0.25,1,0],[0,0.75,0],[0,0.5,0],[0,0.25,0]];shape=mxgraph.bpmn.task;whiteSpace=wrap;rectStyle=rounded;size=10;html=1;container=1;expand=0;collapsible=0;taskMarker=abstract;isLoopStandard=1;" vertex="1" parent="lIRGwpxtklxmiI4k7qlp-2">
          <mxGeometry x="44" y="2856" width="120" height="80" as="geometry" />
        </mxCell>
        <mxCell id="hj-Veea-2y6k5cavyvsn-22" value="" style="edgeStyle=orthogonalEdgeStyle;rounded=0;orthogonalLoop=1;jettySize=auto;html=1;entryX=0.5;entryY=0;entryDx=0;entryDy=0;entryPerimeter=0;startArrow=dash;startFill=0;" edge="1" parent="lIRGwpxtklxmiI4k7qlp-2" source="hj-Veea-2y6k5cavyvsn-18" target="hj-Veea-2y6k5cavyvsn-14">
          <mxGeometry relative="1" as="geometry" />
        </mxCell>
        <mxCell id="hj-Veea-2y6k5cavyvsn-27" value="Sim" style="text;html=1;align=center;verticalAlign=middle;whiteSpace=wrap;rounded=0;" vertex="1" parent="lIRGwpxtklxmiI4k7qlp-2">
          <mxGeometry x="259" y="2787" width="60" height="30" as="geometry" />
        </mxCell>
        <mxCell id="hj-Veea-2y6k5cavyvsn-32" style="edgeStyle=orthogonalEdgeStyle;rounded=0;orthogonalLoop=1;jettySize=auto;html=1;entryX=1;entryY=0.5;entryDx=0;entryDy=0;entryPerimeter=0;" edge="1" parent="lIRGwpxtklxmiI4k7qlp-2" source="hj-Veea-2y6k5cavyvsn-20" target="hj-Veea-2y6k5cavyvsn-4">
          <mxGeometry relative="1" as="geometry">
            <Array as="points">
              <mxPoint x="329" y="3131" />
            </Array>
          </mxGeometry>
        </mxCell>
        <mxCell id="hj-Veea-2y6k5cavyvsn-33" style="edgeStyle=orthogonalEdgeStyle;rounded=0;orthogonalLoop=1;jettySize=auto;html=1;entryX=0.5;entryY=0;entryDx=0;entryDy=0;entryPerimeter=0;" edge="1" parent="lIRGwpxtklxmiI4k7qlp-2" source="hj-Veea-2y6k5cavyvsn-14" target="hj-Veea-2y6k5cavyvsn-4">
          <mxGeometry relative="1" as="geometry" />
        </mxCell>
        <mxCell id="hj-Veea-2y6k5cavyvsn-34" style="edgeStyle=orthogonalEdgeStyle;rounded=0;orthogonalLoop=1;jettySize=auto;html=1;entryX=0.5;entryY=0;entryDx=0;entryDy=0;entryPerimeter=0;" edge="1" parent="lIRGwpxtklxmiI4k7qlp-2" source="lIRGwpxtklxmiI4k7qlp-83" target="hj-Veea-2y6k5cavyvsn-18">
          <mxGeometry relative="1" as="geometry" />
        </mxCell>
        <mxCell id="lIRGwpxtklxmiI4k7qlp-3" value="PSP Pagador" style="swimlane;html=1;startSize=20;fontStyle=0;collapsible=0;horizontal=1;swimlaneLine=1;strokeWidth=2;swimlaneFillColor=#ffffff;whiteSpace=wrap;rounded=1;glass=0;" parent="1" vertex="1">
          <mxGeometry x="730" y="-830" width="420" height="3920" as="geometry" />
        </mxCell>
        <mxCell id="lIRGwpxtklxmiI4k7qlp-14" style="edgeStyle=orthogonalEdgeStyle;rounded=0;orthogonalLoop=1;jettySize=auto;html=1;" parent="lIRGwpxtklxmiI4k7qlp-3" source="lIRGwpxtklxmiI4k7qlp-15" target="lIRGwpxtklxmiI4k7qlp-16" edge="1">
          <mxGeometry relative="1" as="geometry" />
        </mxCell>
        <mxCell id="lIRGwpxtklxmiI4k7qlp-15" value="Recebe solicitação de criação do consentimento" style="points=[[0.25,0,0],[0.5,0,0],[0.75,0,0],[1,0.25,0],[1,0.5,0],[1,0.75,0],[0.75,1,0],[0.5,1,0],[0.25,1,0],[0,0.75,0],[0,0.5,0],[0,0.25,0]];shape=mxgraph.bpmn.task;whiteSpace=wrap;rectStyle=rounded;size=10;html=1;container=1;expand=0;collapsible=0;taskMarker=receive;" parent="lIRGwpxtklxmiI4k7qlp-3" vertex="1">
          <mxGeometry x="135" y="369" width="120" height="80" as="geometry" />
        </mxCell>
        <mxCell id="lIRGwpxtklxmiI4k7qlp-16" value="Processa solicitação de criação do consentimento" style="points=[[0.25,0,0],[0.5,0,0],[0.75,0,0],[1,0.25,0],[1,0.5,0],[1,0.75,0],[0.75,1,0],[0.5,1,0],[0.25,1,0],[0,0.75,0],[0,0.5,0],[0,0.25,0]];shape=mxgraph.bpmn.task;whiteSpace=wrap;rectStyle=rounded;size=10;html=1;container=1;expand=0;collapsible=0;taskMarker=script;" parent="lIRGwpxtklxmiI4k7qlp-3" vertex="1">
          <mxGeometry x="135" y="610" width="120" height="80" as="geometry" />
        </mxCell>
        <mxCell id="a4BlbPkpiTqO5UuftQ6E-10" style="edgeStyle=orthogonalEdgeStyle;rounded=0;orthogonalLoop=1;jettySize=auto;html=1;" parent="lIRGwpxtklxmiI4k7qlp-3" source="lIRGwpxtklxmiI4k7qlp-18" target="lIRGwpxtklxmiI4k7qlp-20" edge="1">
          <mxGeometry relative="1" as="geometry" />
        </mxCell>
        <mxCell id="lIRGwpxtklxmiI4k7qlp-18" value="Sucesso na criação&lt;br&gt;&amp;nbsp;do consentimento?" style="points=[[0.25,0.25,0],[0.5,0,0],[0.75,0.25,0],[1,0.5,0],[0.75,0.75,0],[0.5,1,0],[0.25,0.75,0],[0,0.5,0]];shape=mxgraph.bpmn.gateway2;html=1;verticalLabelPosition=middle;labelBackgroundColor=#ffffff;verticalAlign=middle;align=right;perimeter=rhombusPerimeter;outlineConnect=0;outline=none;symbol=none;gwType=exclusive;labelPosition=left;" parent="lIRGwpxtklxmiI4k7qlp-3" vertex="1">
          <mxGeometry x="170" y="737" width="50" height="50" as="geometry" />
        </mxCell>
        <mxCell id="lIRGwpxtklxmiI4k7qlp-19" style="edgeStyle=orthogonalEdgeStyle;rounded=0;orthogonalLoop=1;jettySize=auto;html=1;entryX=0.5;entryY=0;entryDx=0;entryDy=0;entryPerimeter=0;" parent="lIRGwpxtklxmiI4k7qlp-3" source="lIRGwpxtklxmiI4k7qlp-16" target="lIRGwpxtklxmiI4k7qlp-18" edge="1">
          <mxGeometry relative="1" as="geometry" />
        </mxCell>
        <mxCell id="lIRGwpxtklxmiI4k7qlp-20" value="Informa o erro síncrono" style="points=[[0.145,0.145,0],[0.5,0,0],[0.855,0.145,0],[1,0.5,0],[0.855,0.855,0],[0.5,1,0],[0.145,0.855,0],[0,0.5,0]];shape=mxgraph.bpmn.event;html=1;verticalLabelPosition=top;labelBackgroundColor=#ffffff;verticalAlign=bottom;align=center;perimeter=ellipsePerimeter;outlineConnect=0;aspect=fixed;outline=end;symbol=terminate;labelPosition=center;direction=south;" parent="lIRGwpxtklxmiI4k7qlp-3" vertex="1">
          <mxGeometry x="270" y="737" width="50" height="50" as="geometry" />
        </mxCell>
        <mxCell id="lIRGwpxtklxmiI4k7qlp-21" value="Retorna o sucesso na criação do consentimento" style="points=[[0.25,0,0],[0.5,0,0],[0.75,0,0],[1,0.25,0],[1,0.5,0],[1,0.75,0],[0.75,1,0],[0.5,1,0],[0.25,1,0],[0,0.75,0],[0,0.5,0],[0,0.25,0]];shape=mxgraph.bpmn.task;whiteSpace=wrap;rectStyle=rounded;size=10;html=1;container=1;expand=0;collapsible=0;taskMarker=send;" parent="lIRGwpxtklxmiI4k7qlp-3" vertex="1">
          <mxGeometry x="135" y="860" width="120" height="80" as="geometry" />
        </mxCell>
        <mxCell id="lIRGwpxtklxmiI4k7qlp-22" style="edgeStyle=orthogonalEdgeStyle;rounded=0;orthogonalLoop=1;jettySize=auto;html=1;entryX=0.5;entryY=0;entryDx=0;entryDy=0;entryPerimeter=0;" parent="lIRGwpxtklxmiI4k7qlp-3" source="lIRGwpxtklxmiI4k7qlp-18" target="lIRGwpxtklxmiI4k7qlp-21" edge="1">
          <mxGeometry relative="1" as="geometry" />
        </mxCell>
        <mxCell id="lIRGwpxtklxmiI4k7qlp-80" style="edgeStyle=orthogonalEdgeStyle;rounded=0;orthogonalLoop=1;jettySize=auto;html=1;" parent="lIRGwpxtklxmiI4k7qlp-3" source="lIRGwpxtklxmiI4k7qlp-71" target="lIRGwpxtklxmiI4k7qlp-72" edge="1">
          <mxGeometry relative="1" as="geometry" />
        </mxCell>
        <mxCell id="lIRGwpxtklxmiI4k7qlp-71" value="Recebe solicitação de pagamento" style="points=[[0.25,0,0],[0.5,0,0],[0.75,0,0],[1,0.25,0],[1,0.5,0],[1,0.75,0],[0.75,1,0],[0.5,1,0],[0.25,1,0],[0,0.75,0],[0,0.5,0],[0,0.25,0]];shape=mxgraph.bpmn.task;whiteSpace=wrap;rectStyle=rounded;size=10;html=1;container=1;expand=0;collapsible=0;taskMarker=receive;" parent="lIRGwpxtklxmiI4k7qlp-3" vertex="1">
          <mxGeometry x="135.5" y="2239" width="120" height="80" as="geometry" />
        </mxCell>
        <mxCell id="lIRGwpxtklxmiI4k7qlp-72" value="Valida as informações do pagamento com os dados do consentimento" style="points=[[0.25,0,0],[0.5,0,0],[0.75,0,0],[1,0.25,0],[1,0.5,0],[1,0.75,0],[0.75,1,0],[0.5,1,0],[0.25,1,0],[0,0.75,0],[0,0.5,0],[0,0.25,0]];shape=mxgraph.bpmn.task;whiteSpace=wrap;rectStyle=rounded;size=10;html=1;container=1;expand=0;collapsible=0;taskMarker=script;" parent="lIRGwpxtklxmiI4k7qlp-3" vertex="1">
          <mxGeometry x="112.5" y="2380" width="165" height="90" as="geometry" />
        </mxCell>
        <mxCell id="a4BlbPkpiTqO5UuftQ6E-4" style="edgeStyle=orthogonalEdgeStyle;rounded=0;orthogonalLoop=1;jettySize=auto;html=1;" parent="lIRGwpxtklxmiI4k7qlp-3" source="lIRGwpxtklxmiI4k7qlp-74" target="lIRGwpxtklxmiI4k7qlp-76" edge="1">
          <mxGeometry relative="1" as="geometry" />
        </mxCell>
        <mxCell id="lIRGwpxtklxmiI4k7qlp-74" value="Sucesso na criação&lt;br&gt;&amp;nbsp;do pagamento?" style="points=[[0.25,0.25,0],[0.5,0,0],[0.75,0.25,0],[1,0.5,0],[0.75,0.75,0],[0.5,1,0],[0.25,0.75,0],[0,0.5,0]];shape=mxgraph.bpmn.gateway2;html=1;verticalLabelPosition=middle;labelBackgroundColor=#ffffff;verticalAlign=middle;align=right;perimeter=rhombusPerimeter;outlineConnect=0;outline=none;symbol=none;gwType=exclusive;labelPosition=left;" parent="lIRGwpxtklxmiI4k7qlp-3" vertex="1">
          <mxGeometry x="170.5" y="2550" width="50" height="50" as="geometry" />
        </mxCell>
        <mxCell id="lIRGwpxtklxmiI4k7qlp-75" style="edgeStyle=orthogonalEdgeStyle;rounded=0;orthogonalLoop=1;jettySize=auto;html=1;entryX=0.5;entryY=0;entryDx=0;entryDy=0;entryPerimeter=0;" parent="lIRGwpxtklxmiI4k7qlp-3" source="lIRGwpxtklxmiI4k7qlp-72" target="lIRGwpxtklxmiI4k7qlp-74" edge="1">
          <mxGeometry relative="1" as="geometry" />
        </mxCell>
        <mxCell id="lIRGwpxtklxmiI4k7qlp-76" value="Informa o erro síncrono" style="points=[[0.145,0.145,0],[0.5,0,0],[0.855,0.145,0],[1,0.5,0],[0.855,0.855,0],[0.5,1,0],[0.145,0.855,0],[0,0.5,0]];shape=mxgraph.bpmn.event;html=1;verticalLabelPosition=top;labelBackgroundColor=#ffffff;verticalAlign=bottom;align=center;perimeter=ellipsePerimeter;outlineConnect=0;aspect=fixed;outline=end;symbol=terminate;labelPosition=center;" parent="lIRGwpxtklxmiI4k7qlp-3" vertex="1">
          <mxGeometry x="270" y="2550" width="50" height="50" as="geometry" />
        </mxCell>
        <mxCell id="lIRGwpxtklxmiI4k7qlp-99" style="edgeStyle=orthogonalEdgeStyle;rounded=0;orthogonalLoop=1;jettySize=auto;html=1;" parent="lIRGwpxtklxmiI4k7qlp-3" source="lIRGwpxtklxmiI4k7qlp-77" target="lIRGwpxtklxmiI4k7qlp-98" edge="1">
          <mxGeometry relative="1" as="geometry" />
        </mxCell>
        <mxCell id="lIRGwpxtklxmiI4k7qlp-77" value="Retorna o sucesso na criação do pagamento" style="points=[[0.25,0,0],[0.5,0,0],[0.75,0,0],[1,0.25,0],[1,0.5,0],[1,0.75,0],[0.75,1,0],[0.5,1,0],[0.25,1,0],[0,0.75,0],[0,0.5,0],[0,0.25,0]];shape=mxgraph.bpmn.task;whiteSpace=wrap;rectStyle=rounded;size=10;html=1;container=1;expand=0;collapsible=0;taskMarker=send;" parent="lIRGwpxtklxmiI4k7qlp-3" vertex="1">
          <mxGeometry x="135.5" y="2674" width="120" height="80" as="geometry" />
        </mxCell>
        <mxCell id="lIRGwpxtklxmiI4k7qlp-78" style="edgeStyle=orthogonalEdgeStyle;rounded=0;orthogonalLoop=1;jettySize=auto;html=1;entryX=0.5;entryY=0;entryDx=0;entryDy=0;entryPerimeter=0;" parent="lIRGwpxtklxmiI4k7qlp-3" source="lIRGwpxtklxmiI4k7qlp-74" target="lIRGwpxtklxmiI4k7qlp-77" edge="1">
          <mxGeometry relative="1" as="geometry" />
        </mxCell>
        <mxCell id="ujyuRZ4Cdycu08kkKVto-11" value="Sim" style="edgeLabel;html=1;align=center;verticalAlign=middle;resizable=0;points=[];" parent="lIRGwpxtklxmiI4k7qlp-78" vertex="1" connectable="0">
          <mxGeometry x="-0.2184" y="5" relative="1" as="geometry">
            <mxPoint x="-29" as="offset" />
          </mxGeometry>
        </mxCell>
        <mxCell id="lIRGwpxtklxmiI4k7qlp-101" style="edgeStyle=orthogonalEdgeStyle;rounded=0;orthogonalLoop=1;jettySize=auto;html=1;" parent="lIRGwpxtklxmiI4k7qlp-3" source="lIRGwpxtklxmiI4k7qlp-98" target="lIRGwpxtklxmiI4k7qlp-100" edge="1">
          <mxGeometry relative="1" as="geometry" />
        </mxCell>
        <mxCell id="lIRGwpxtklxmiI4k7qlp-98" value="Finaliza o processamento dos pagamentos enviados" style="points=[[0.25,0,0],[0.5,0,0],[0.75,0,0],[1,0.25,0],[1,0.5,0],[1,0.75,0],[0.75,1,0],[0.5,1,0],[0.25,1,0],[0,0.75,0],[0,0.5,0],[0,0.25,0]];shape=mxgraph.bpmn.task;whiteSpace=wrap;rectStyle=rounded;size=10;html=1;container=1;expand=0;collapsible=0;taskMarker=script;" parent="lIRGwpxtklxmiI4k7qlp-3" vertex="1">
          <mxGeometry x="127" y="2820" width="137" height="90" as="geometry" />
        </mxCell>
        <mxCell id="a4BlbPkpiTqO5UuftQ6E-13" value="Recebe os racunhos de pagamentos" style="points=[[0.25,0,0],[0.5,0,0],[0.75,0,0],[1,0.25,0],[1,0.5,0],[1,0.75,0],[0.75,1,0],[0.5,1,0],[0.25,1,0],[0,0.75,0],[0,0.5,0],[0,0.25,0]];shape=mxgraph.bpmn.task;whiteSpace=wrap;rectStyle=rounded;size=10;html=1;container=1;expand=0;collapsible=0;taskMarker=receive;" parent="lIRGwpxtklxmiI4k7qlp-3" vertex="1">
          <mxGeometry x="135" y="1019" width="120" height="80" as="geometry" />
        </mxCell>
        <mxCell id="a4BlbPkpiTqO5UuftQ6E-19" value="Processa os rascunhos" style="points=[[0.25,0,0],[0.5,0,0],[0.75,0,0],[1,0.25,0],[1,0.5,0],[1,0.75,0],[0.75,1,0],[0.5,1,0],[0.25,1,0],[0,0.75,0],[0,0.5,0],[0,0.25,0]];shape=mxgraph.bpmn.task;whiteSpace=wrap;rectStyle=rounded;size=10;html=1;container=1;expand=0;collapsible=0;taskMarker=script;" parent="lIRGwpxtklxmiI4k7qlp-3" vertex="1">
          <mxGeometry x="135.5" y="1190" width="120" height="80" as="geometry" />
        </mxCell>
        <mxCell id="a4BlbPkpiTqO5UuftQ6E-20" style="edgeStyle=orthogonalEdgeStyle;rounded=0;orthogonalLoop=1;jettySize=auto;html=1;entryX=0.5;entryY=0;entryDx=0;entryDy=0;entryPerimeter=0;" parent="lIRGwpxtklxmiI4k7qlp-3" source="a4BlbPkpiTqO5UuftQ6E-13" target="a4BlbPkpiTqO5UuftQ6E-19" edge="1">
          <mxGeometry relative="1" as="geometry" />
        </mxCell>
        <mxCell id="a4BlbPkpiTqO5UuftQ6E-21" value="Informa sucesso no cadastro dos rascunhos" style="points=[[0.25,0,0],[0.5,0,0],[0.75,0,0],[1,0.25,0],[1,0.5,0],[1,0.75,0],[0.75,1,0],[0.5,1,0],[0.25,1,0],[0,0.75,0],[0,0.5,0],[0,0.25,0]];shape=mxgraph.bpmn.task;whiteSpace=wrap;rectStyle=rounded;size=10;html=1;container=1;expand=0;collapsible=0;taskMarker=send;" parent="lIRGwpxtklxmiI4k7qlp-3" vertex="1">
          <mxGeometry x="135" y="1340" width="120" height="80" as="geometry" />
        </mxCell>
        <mxCell id="a4BlbPkpiTqO5UuftQ6E-22" style="edgeStyle=orthogonalEdgeStyle;rounded=0;orthogonalLoop=1;jettySize=auto;html=1;entryX=0.5;entryY=0;entryDx=0;entryDy=0;entryPerimeter=0;" parent="lIRGwpxtklxmiI4k7qlp-3" source="a4BlbPkpiTqO5UuftQ6E-19" target="a4BlbPkpiTqO5UuftQ6E-21" edge="1">
          <mxGeometry relative="1" as="geometry" />
        </mxCell>
        <mxCell id="a4BlbPkpiTqO5UuftQ6E-38" value="Recebe solicitação de alteração de estado do consentimento" style="points=[[0.25,0,0],[0.5,0,0],[0.75,0,0],[1,0.25,0],[1,0.5,0],[1,0.75,0],[0.75,1,0],[0.5,1,0],[0.25,1,0],[0,0.75,0],[0,0.5,0],[0,0.25,0]];shape=mxgraph.bpmn.task;whiteSpace=wrap;rectStyle=rounded;size=10;html=1;container=1;expand=0;collapsible=0;taskMarker=receive;" parent="lIRGwpxtklxmiI4k7qlp-3" vertex="1">
          <mxGeometry x="135" y="1490" width="120" height="80" as="geometry" />
        </mxCell>
        <mxCell id="a4BlbPkpiTqO5UuftQ6E-40" value="Processa a mudança de estado" style="points=[[0.25,0,0],[0.5,0,0],[0.75,0,0],[1,0.25,0],[1,0.5,0],[1,0.75,0],[0.75,1,0],[0.5,1,0],[0.25,1,0],[0,0.75,0],[0,0.5,0],[0,0.25,0]];shape=mxgraph.bpmn.task;whiteSpace=wrap;rectStyle=rounded;size=10;html=1;container=1;expand=0;collapsible=0;taskMarker=script;" parent="lIRGwpxtklxmiI4k7qlp-3" vertex="1">
          <mxGeometry x="135.5" y="1610" width="120" height="80" as="geometry" />
        </mxCell>
        <mxCell id="a4BlbPkpiTqO5UuftQ6E-41" style="edgeStyle=orthogonalEdgeStyle;rounded=0;orthogonalLoop=1;jettySize=auto;html=1;entryX=0.5;entryY=0;entryDx=0;entryDy=0;entryPerimeter=0;" parent="lIRGwpxtklxmiI4k7qlp-3" source="a4BlbPkpiTqO5UuftQ6E-38" target="a4BlbPkpiTqO5UuftQ6E-40" edge="1">
          <mxGeometry relative="1" as="geometry" />
        </mxCell>
        <mxCell id="a4BlbPkpiTqO5UuftQ6E-42" value="Informa sucesso na alteração do estado" style="points=[[0.25,0,0],[0.5,0,0],[0.75,0,0],[1,0.25,0],[1,0.5,0],[1,0.75,0],[0.75,1,0],[0.5,1,0],[0.25,1,0],[0,0.75,0],[0,0.5,0],[0,0.25,0]];shape=mxgraph.bpmn.task;whiteSpace=wrap;rectStyle=rounded;size=10;html=1;container=1;expand=0;collapsible=0;taskMarker=send;" parent="lIRGwpxtklxmiI4k7qlp-3" vertex="1">
          <mxGeometry x="135" y="1750" width="120" height="80" as="geometry" />
        </mxCell>
        <mxCell id="a4BlbPkpiTqO5UuftQ6E-43" style="edgeStyle=orthogonalEdgeStyle;rounded=0;orthogonalLoop=1;jettySize=auto;html=1;entryX=0.5;entryY=0;entryDx=0;entryDy=0;entryPerimeter=0;" parent="lIRGwpxtklxmiI4k7qlp-3" source="a4BlbPkpiTqO5UuftQ6E-40" target="a4BlbPkpiTqO5UuftQ6E-42" edge="1">
          <mxGeometry relative="1" as="geometry" />
        </mxCell>
        <mxCell id="lIRGwpxtklxmiI4k7qlp-106" style="edgeStyle=orthogonalEdgeStyle;rounded=0;orthogonalLoop=1;jettySize=auto;html=1;" parent="lIRGwpxtklxmiI4k7qlp-3" source="lIRGwpxtklxmiI4k7qlp-100" target="lIRGwpxtklxmiI4k7qlp-105" edge="1">
          <mxGeometry relative="1" as="geometry" />
        </mxCell>
        <mxCell id="lIRGwpxtklxmiI4k7qlp-100" value="" style="points=[[0.25,0.25,0],[0.5,0,0],[0.75,0.25,0],[1,0.5,0],[0.75,0.75,0],[0.5,1,0],[0.25,0.75,0],[0,0.5,0]];shape=mxgraph.bpmn.gateway2;html=1;verticalLabelPosition=bottom;labelBackgroundColor=#ffffff;verticalAlign=top;align=center;perimeter=rhombusPerimeter;outlineConnect=0;outline=none;symbol=none;gwType=parallel;" parent="lIRGwpxtklxmiI4k7qlp-3" vertex="1">
          <mxGeometry x="170.5" y="3020" width="50" height="50" as="geometry" />
        </mxCell>
        <mxCell id="lIRGwpxtklxmiI4k7qlp-105" value="Notifica o pagador de falhas nos pagamentos" style="points=[[0.25,0,0],[0.5,0,0],[0.75,0,0],[1,0.25,0],[1,0.5,0],[1,0.75,0],[0.75,1,0],[0.5,1,0],[0.25,1,0],[0,0.75,0],[0,0.5,0],[0,0.25,0]];shape=mxgraph.bpmn.task;whiteSpace=wrap;rectStyle=rounded;size=10;html=1;container=1;expand=0;collapsible=0;taskMarker=send;" parent="lIRGwpxtklxmiI4k7qlp-3" vertex="1">
          <mxGeometry x="30" y="3110" width="120" height="80" as="geometry" />
        </mxCell>
        <mxCell id="lIRGwpxtklxmiI4k7qlp-107" style="edgeStyle=orthogonalEdgeStyle;rounded=0;orthogonalLoop=1;jettySize=auto;html=1;entryX=0.5;entryY=0;entryDx=0;entryDy=0;entryPerimeter=0;" parent="lIRGwpxtklxmiI4k7qlp-3" source="lIRGwpxtklxmiI4k7qlp-100" target="ujyuRZ4Cdycu08kkKVto-18" edge="1">
          <mxGeometry relative="1" as="geometry">
            <Array as="points">
              <mxPoint x="255" y="3045" />
            </Array>
            <mxPoint x="255" y="2991.9999999999995" as="targetPoint" />
          </mxGeometry>
        </mxCell>
        <mxCell id="lIRGwpxtklxmiI4k7qlp-113" value="Notifica o iniciador do estado do consentimento" style="points=[[0.25,0,0],[0.5,0,0],[0.75,0,0],[1,0.25,0],[1,0.5,0],[1,0.75,0],[0.75,1,0],[0.5,1,0],[0.25,1,0],[0,0.75,0],[0,0.5,0],[0,0.25,0]];shape=mxgraph.bpmn.task;whiteSpace=wrap;rectStyle=rounded;size=10;html=1;container=1;expand=0;collapsible=0;taskMarker=send;" parent="lIRGwpxtklxmiI4k7qlp-3" vertex="1">
          <mxGeometry x="30.5" y="3480" width="120" height="80" as="geometry" />
        </mxCell>
        <mxCell id="ujyuRZ4Cdycu08kkKVto-38" value="" style="edgeStyle=orthogonalEdgeStyle;rounded=0;orthogonalLoop=1;jettySize=auto;html=1;startArrow=dash;startFill=0;" parent="lIRGwpxtklxmiI4k7qlp-3" source="ujyuRZ4Cdycu08kkKVto-18" target="ujyuRZ4Cdycu08kkKVto-37" edge="1">
          <mxGeometry relative="1" as="geometry" />
        </mxCell>
        <mxCell id="ujyuRZ4Cdycu08kkKVto-18" value="" style="points=[[0.25,0.25,0],[0.5,0,0],[0.75,0.25,0],[1,0.5,0],[0.75,0.75,0],[0.5,1,0],[0.25,0.75,0],[0,0.5,0]];shape=mxgraph.bpmn.gateway2;html=1;verticalLabelPosition=bottom;labelBackgroundColor=#ffffff;verticalAlign=top;align=center;perimeter=rhombusPerimeter;outlineConnect=0;outline=none;symbol=none;gwType=exclusive;" parent="lIRGwpxtklxmiI4k7qlp-3" vertex="1">
          <mxGeometry x="230" y="3230" width="50" height="45" as="geometry" />
        </mxCell>
        <mxCell id="ujyuRZ4Cdycu08kkKVto-34" style="edgeStyle=orthogonalEdgeStyle;rounded=0;orthogonalLoop=1;jettySize=auto;html=1;entryX=0.5;entryY=0;entryDx=0;entryDy=0;entryPerimeter=0;" parent="lIRGwpxtklxmiI4k7qlp-3" source="ujyuRZ4Cdycu08kkKVto-18" edge="1">
          <mxGeometry relative="1" as="geometry">
            <mxPoint x="90" y="3340" as="targetPoint" />
          </mxGeometry>
        </mxCell>
        <mxCell id="ujyuRZ4Cdycu08kkKVto-35" value="Sim" style="edgeLabel;html=1;align=center;verticalAlign=middle;resizable=0;points=[];" parent="ujyuRZ4Cdycu08kkKVto-34" vertex="1" connectable="0">
          <mxGeometry x="-0.7632" y="1" relative="1" as="geometry">
            <mxPoint x="4" y="-13" as="offset" />
          </mxGeometry>
        </mxCell>
        <mxCell id="ujyuRZ4Cdycu08kkKVto-37" value="" style="points=[[0.25,0.25,0],[0.5,0,0],[0.75,0.25,0],[1,0.5,0],[0.75,0.75,0],[0.5,1,0],[0.25,0.75,0],[0,0.5,0]];shape=mxgraph.bpmn.gateway2;html=1;verticalLabelPosition=bottom;labelBackgroundColor=#ffffff;verticalAlign=top;align=center;perimeter=rhombusPerimeter;outlineConnect=0;outline=none;symbol=none;gwType=exclusive;" parent="lIRGwpxtklxmiI4k7qlp-3" vertex="1">
          <mxGeometry x="230" y="3358" width="50" height="45" as="geometry" />
        </mxCell>
        <mxCell id="ujyuRZ4Cdycu08kkKVto-42" style="edgeStyle=orthogonalEdgeStyle;rounded=0;orthogonalLoop=1;jettySize=auto;html=1;entryX=1;entryY=0.5;entryDx=0;entryDy=0;entryPerimeter=0;" parent="lIRGwpxtklxmiI4k7qlp-3" source="ujyuRZ4Cdycu08kkKVto-37" edge="1">
          <mxGeometry relative="1" as="geometry">
            <mxPoint x="150" y="3380" as="targetPoint" />
          </mxGeometry>
        </mxCell>
        <mxCell id="ujyuRZ4Cdycu08kkKVto-48" value="Sim" style="edgeLabel;html=1;align=center;verticalAlign=middle;resizable=0;points=[];" parent="ujyuRZ4Cdycu08kkKVto-42" vertex="1" connectable="0">
          <mxGeometry x="-0.655" y="-4" relative="1" as="geometry">
            <mxPoint y="-4" as="offset" />
          </mxGeometry>
        </mxCell>
        <mxCell id="ujyuRZ4Cdycu08kkKVto-45" value="" style="points=[[0.145,0.145,0],[0.5,0,0],[0.855,0.145,0],[1,0.5,0],[0.855,0.855,0],[0.5,1,0],[0.145,0.855,0],[0,0.5,0]];shape=mxgraph.bpmn.event;html=1;verticalLabelPosition=bottom;labelBackgroundColor=#ffffff;verticalAlign=top;align=center;perimeter=ellipsePerimeter;outlineConnect=0;aspect=fixed;outline=end;symbol=terminate2;" parent="lIRGwpxtklxmiI4k7qlp-3" vertex="1">
          <mxGeometry x="230" y="3490" width="50" height="50" as="geometry" />
        </mxCell>
        <mxCell id="ujyuRZ4Cdycu08kkKVto-46" style="edgeStyle=orthogonalEdgeStyle;rounded=0;orthogonalLoop=1;jettySize=auto;html=1;entryX=0.5;entryY=0;entryDx=0;entryDy=0;entryPerimeter=0;startArrow=dash;startFill=0;" parent="lIRGwpxtklxmiI4k7qlp-3" source="ujyuRZ4Cdycu08kkKVto-37" target="ujyuRZ4Cdycu08kkKVto-45" edge="1">
          <mxGeometry relative="1" as="geometry" />
        </mxCell>
        <mxCell id="ujyuRZ4Cdycu08kkKVto-47" style="edgeStyle=orthogonalEdgeStyle;rounded=0;orthogonalLoop=1;jettySize=auto;html=1;entryX=0.5;entryY=0;entryDx=0;entryDy=0;entryPerimeter=0;" parent="lIRGwpxtklxmiI4k7qlp-3" target="lIRGwpxtklxmiI4k7qlp-113" edge="1">
          <mxGeometry relative="1" as="geometry">
            <mxPoint x="89.99999999999955" y="3420" as="sourcePoint" />
          </mxGeometry>
        </mxCell>
        <mxCell id="ujyuRZ4Cdycu08kkKVto-19" value="" style="html=1;shape=mxgraph.flowchart.annotation_2;align=left;labelPosition=right;" parent="lIRGwpxtklxmiI4k7qlp-3" vertex="1">
          <mxGeometry x="278" y="3218" width="80" height="70" as="geometry" />
        </mxCell>
        <mxCell id="ujyuRZ4Cdycu08kkKVto-21" value="Todos os pagamentos previstos no consentimento foram realizados?" style="text;html=1;strokeColor=none;fillColor=none;align=center;verticalAlign=middle;whiteSpace=wrap;rounded=0;" parent="lIRGwpxtklxmiI4k7qlp-3" vertex="1">
          <mxGeometry x="317" y="3213" width="100" height="80" as="geometry" />
        </mxCell>
        <mxCell id="ujyuRZ4Cdycu08kkKVto-39" value="" style="html=1;shape=mxgraph.flowchart.annotation_2;align=left;labelPosition=right;" parent="lIRGwpxtklxmiI4k7qlp-3" vertex="1">
          <mxGeometry x="279" y="3345.5" width="80" height="70" as="geometry" />
        </mxCell>
        <mxCell id="ujyuRZ4Cdycu08kkKVto-40" value="A data do ultimo pagamento previsto no consentimento foi ultrapassada?" style="text;html=1;strokeColor=none;fillColor=none;align=center;verticalAlign=middle;whiteSpace=wrap;rounded=0;" parent="lIRGwpxtklxmiI4k7qlp-3" vertex="1">
          <mxGeometry x="320" y="3340.5" width="100" height="80" as="geometry" />
        </mxCell>
        <mxCell id="a4BlbPkpiTqO5UuftQ6E-57" value="Muda o status do consentimento para CONSUMED" style="points=[[0.25,0,0],[0.5,0,0],[0.75,0,0],[1,0.25,0],[1,0.5,0],[1,0.75,0],[0.75,1,0],[0.5,1,0],[0.25,1,0],[0,0.75,0],[0,0.5,0],[0,0.25,0]];shape=mxgraph.bpmn.task;whiteSpace=wrap;rectStyle=rounded;size=10;html=1;container=1;expand=0;collapsible=0;taskMarker=script;" parent="lIRGwpxtklxmiI4k7qlp-3" vertex="1">
          <mxGeometry x="30" y="3335.5" width="120" height="84.5" as="geometry" />
        </mxCell>
        <mxCell id="lIRGwpxtklxmiI4k7qlp-1" value="Pagador" style="swimlane;html=1;startSize=20;fontStyle=0;collapsible=0;horizontal=1;swimlaneLine=1;strokeWidth=2;swimlaneFillColor=#ffffff;whiteSpace=wrap;rounded=1;" parent="1" vertex="1">
          <mxGeometry x="-270" y="-830" width="340" height="3920" as="geometry" />
        </mxCell>
        <mxCell id="lIRGwpxtklxmiI4k7qlp-7" style="edgeStyle=orthogonalEdgeStyle;rounded=0;orthogonalLoop=1;jettySize=auto;html=1;" parent="lIRGwpxtklxmiI4k7qlp-1" source="lIRGwpxtklxmiI4k7qlp-4" target="lIRGwpxtklxmiI4k7qlp-6" edge="1">
          <mxGeometry relative="1" as="geometry" />
        </mxCell>
        <mxCell id="lIRGwpxtklxmiI4k7qlp-4" value="Início" style="points=[[0.145,0.145,0],[0.5,0,0],[0.855,0.145,0],[1,0.5,0],[0.855,0.855,0],[0.5,1,0],[0.145,0.855,0],[0,0.5,0]];shape=mxgraph.bpmn.event;html=1;verticalLabelPosition=top;labelBackgroundColor=#ffffff;verticalAlign=bottom;align=center;perimeter=ellipsePerimeter;outlineConnect=0;aspect=fixed;outline=standard;symbol=general;labelPosition=center;" parent="lIRGwpxtklxmiI4k7qlp-1" vertex="1">
          <mxGeometry x="137" y="70" width="50" height="50" as="geometry" />
        </mxCell>
        <mxCell id="lIRGwpxtklxmiI4k7qlp-6" value="Acessa o iniciador de transações de pagamento" style="points=[[0.25,0,0],[0.5,0,0],[0.75,0,0],[1,0.25,0],[1,0.5,0],[1,0.75,0],[0.75,1,0],[0.5,1,0],[0.25,1,0],[0,0.75,0],[0,0.5,0],[0,0.25,0]];shape=mxgraph.bpmn.task;whiteSpace=wrap;rectStyle=rounded;size=10;html=1;container=1;expand=0;collapsible=0;taskMarker=user;" parent="lIRGwpxtklxmiI4k7qlp-1" vertex="1">
          <mxGeometry x="102" y="180" width="120" height="80" as="geometry" />
        </mxCell>
        <mxCell id="lIRGwpxtklxmiI4k7qlp-43" value="Seleciona conta de débito" style="points=[[0.25,0,0],[0.5,0,0],[0.75,0,0],[1,0.25,0],[1,0.5,0],[1,0.75,0],[0.75,1,0],[0.5,1,0],[0.25,1,0],[0,0.75,0],[0,0.5,0],[0,0.25,0]];shape=mxgraph.bpmn.task;whiteSpace=wrap;rectStyle=rounded;size=10;html=1;container=1;expand=0;collapsible=0;taskMarker=user;" parent="lIRGwpxtklxmiI4k7qlp-1" vertex="1">
          <mxGeometry x="110" y="1970" width="120" height="80" as="geometry" />
        </mxCell>
        <mxCell id="lIRGwpxtklxmiI4k7qlp-42" value="Realiza autenticação&amp;nbsp;" style="points=[[0.25,0,0],[0.5,0,0],[0.75,0,0],[1,0.25,0],[1,0.5,0],[1,0.75,0],[0.75,1,0],[0.5,1,0],[0.25,1,0],[0,0.75,0],[0,0.5,0],[0,0.25,0]];shape=mxgraph.bpmn.task;whiteSpace=wrap;rectStyle=rounded;size=10;html=1;container=1;expand=0;collapsible=0;taskMarker=user;" parent="lIRGwpxtklxmiI4k7qlp-1" vertex="1">
          <mxGeometry x="110" y="1780" width="120" height="80" as="geometry" />
        </mxCell>
        <mxCell id="lIRGwpxtklxmiI4k7qlp-49" style="edgeStyle=orthogonalEdgeStyle;rounded=0;orthogonalLoop=1;jettySize=auto;html=1;" parent="lIRGwpxtklxmiI4k7qlp-1" source="lIRGwpxtklxmiI4k7qlp-42" target="lIRGwpxtklxmiI4k7qlp-43" edge="1">
          <mxGeometry relative="1" as="geometry" />
        </mxCell>
        <mxCell id="lIRGwpxtklxmiI4k7qlp-104" value="Verifica o estado dos pagamentos" style="points=[[0.25,0,0],[0.5,0,0],[0.75,0,0],[1,0.25,0],[1,0.5,0],[1,0.75,0],[0.75,1,0],[0.5,1,0],[0.25,1,0],[0,0.75,0],[0,0.5,0],[0,0.25,0]];shape=mxgraph.bpmn.task;whiteSpace=wrap;rectStyle=rounded;size=10;html=1;container=1;expand=0;collapsible=0;taskMarker=user;" parent="lIRGwpxtklxmiI4k7qlp-1" vertex="1">
          <mxGeometry x="137" y="3370" width="120" height="80" as="geometry" />
        </mxCell>
        <mxCell id="lIRGwpxtklxmiI4k7qlp-110" value="" style="points=[[0.145,0.145,0],[0.5,0,0],[0.855,0.145,0],[1,0.5,0],[0.855,0.855,0],[0.5,1,0],[0.145,0.855,0],[0,0.5,0]];shape=mxgraph.bpmn.event;html=1;verticalLabelPosition=bottom;labelBackgroundColor=#ffffff;verticalAlign=top;align=center;perimeter=ellipsePerimeter;outlineConnect=0;aspect=fixed;outline=end;symbol=terminate2;" parent="lIRGwpxtklxmiI4k7qlp-1" vertex="1">
          <mxGeometry x="172" y="3520" width="50" height="50" as="geometry" />
        </mxCell>
        <mxCell id="lIRGwpxtklxmiI4k7qlp-111" style="edgeStyle=orthogonalEdgeStyle;rounded=0;orthogonalLoop=1;jettySize=auto;html=1;entryX=0.5;entryY=0;entryDx=0;entryDy=0;entryPerimeter=0;" parent="lIRGwpxtklxmiI4k7qlp-1" source="lIRGwpxtklxmiI4k7qlp-104" target="lIRGwpxtklxmiI4k7qlp-110" edge="1">
          <mxGeometry relative="1" as="geometry" />
        </mxCell>
        <mxCell id="ujyuRZ4Cdycu08kkKVto-3" value="Autoriza o consentimento" style="points=[[0.25,0,0],[0.5,0,0],[0.75,0,0],[1,0.25,0],[1,0.5,0],[1,0.75,0],[0.75,1,0],[0.5,1,0],[0.25,1,0],[0,0.75,0],[0,0.5,0],[0,0.25,0]];shape=mxgraph.bpmn.task;whiteSpace=wrap;rectStyle=rounded;size=10;html=1;container=1;expand=0;collapsible=0;taskMarker=user;" parent="lIRGwpxtklxmiI4k7qlp-1" vertex="1">
          <mxGeometry x="110" y="2160" width="120" height="80" as="geometry" />
        </mxCell>
        <mxCell id="ujyuRZ4Cdycu08kkKVto-4" style="edgeStyle=orthogonalEdgeStyle;rounded=0;orthogonalLoop=1;jettySize=auto;html=1;entryX=0.5;entryY=0;entryDx=0;entryDy=0;entryPerimeter=0;" parent="lIRGwpxtklxmiI4k7qlp-1" source="lIRGwpxtklxmiI4k7qlp-43" target="ujyuRZ4Cdycu08kkKVto-3" edge="1">
          <mxGeometry relative="1" as="geometry" />
        </mxCell>
        <mxCell id="lIRGwpxtklxmiI4k7qlp-40" value="Confere os dados exibidos pelo iniciador" style="points=[[0.25,0,0],[0.5,0,0],[0.75,0,0],[1,0.25,0],[1,0.5,0],[1,0.75,0],[0.75,1,0],[0.5,1,0],[0.25,1,0],[0,0.75,0],[0,0.5,0],[0,0.25,0]];shape=mxgraph.bpmn.task;whiteSpace=wrap;rectStyle=rounded;size=10;html=1;container=1;expand=0;collapsible=0;taskMarker=user;" parent="lIRGwpxtklxmiI4k7qlp-1" vertex="1">
          <mxGeometry x="120" y="462" width="120" height="80" as="geometry" />
        </mxCell>
        <mxCell id="lIRGwpxtklxmiI4k7qlp-41" value="Confirma a transação no iniciador" style="points=[[0.25,0,0],[0.5,0,0],[0.75,0,0],[1,0.25,0],[1,0.5,0],[1,0.75,0],[0.75,1,0],[0.5,1,0],[0.25,1,0],[0,0.75,0],[0,0.5,0],[0,0.25,0]];shape=mxgraph.bpmn.task;whiteSpace=wrap;rectStyle=rounded;size=10;html=1;container=1;expand=0;collapsible=0;taskMarker=user;" parent="lIRGwpxtklxmiI4k7qlp-1" vertex="1">
          <mxGeometry x="120" y="631" width="120" height="80" as="geometry" />
        </mxCell>
        <mxCell id="lIRGwpxtklxmiI4k7qlp-45" style="edgeStyle=orthogonalEdgeStyle;rounded=0;orthogonalLoop=1;jettySize=auto;html=1;" parent="lIRGwpxtklxmiI4k7qlp-1" source="lIRGwpxtklxmiI4k7qlp-40" target="lIRGwpxtklxmiI4k7qlp-41" edge="1">
          <mxGeometry relative="1" as="geometry" />
        </mxCell>
        <mxCell id="bwk8iUxbsP5TFewiAtN--1" value="" style="points=[[0.25,0,0],[0.5,0,0],[0.75,0,0],[1,0.25,0],[1,0.5,0],[1,0.75,0],[0.75,1,0],[0.5,1,0],[0.25,1,0],[0,0.75,0],[0,0.5,0],[0,0.25,0]];rounded=1;arcSize=10;dashed=1;strokeColor=#000000;fillColor=none;gradientColor=none;dashPattern=8 3 1 3;strokeWidth=2;whiteSpace=wrap;html=1;" parent="lIRGwpxtklxmiI4k7qlp-1" vertex="1">
          <mxGeometry x="57.5" y="1730" width="225" height="520" as="geometry" />
        </mxCell>
        <mxCell id="bwk8iUxbsP5TFewiAtN--2" value="No ambiente do Detentor" style="text;html=1;align=center;verticalAlign=middle;whiteSpace=wrap;rounded=0;" parent="lIRGwpxtklxmiI4k7qlp-1" vertex="1">
          <mxGeometry x="75" y="1734" width="105" height="30" as="geometry" />
        </mxCell>
        <mxCell id="hj-Veea-2y6k5cavyvsn-9" value="Recebe o comprovante do pagamento" style="points=[[0.25,0,0],[0.5,0,0],[0.75,0,0],[1,0.25,0],[1,0.5,0],[1,0.75,0],[0.75,1,0],[0.5,1,0],[0.25,1,0],[0,0.75,0],[0,0.5,0],[0,0.25,0]];shape=mxgraph.bpmn.task;whiteSpace=wrap;rectStyle=rounded;size=10;html=1;container=1;expand=0;collapsible=0;taskMarker=user;" vertex="1" parent="lIRGwpxtklxmiI4k7qlp-1">
          <mxGeometry x="150" y="3090" width="120" height="80" as="geometry" />
        </mxCell>
        <mxCell id="hj-Veea-2y6k5cavyvsn-11" value="" style="points=[[0.145,0.145,0],[0.5,0,0],[0.855,0.145,0],[1,0.5,0],[0.855,0.855,0],[0.5,1,0],[0.145,0.855,0],[0,0.5,0]];shape=mxgraph.bpmn.event;html=1;verticalLabelPosition=bottom;labelBackgroundColor=#ffffff;verticalAlign=top;align=center;perimeter=ellipsePerimeter;outlineConnect=0;aspect=fixed;outline=end;symbol=terminate2;" vertex="1" parent="lIRGwpxtklxmiI4k7qlp-1">
          <mxGeometry x="185" y="3240" width="50" height="50" as="geometry" />
        </mxCell>
        <mxCell id="hj-Veea-2y6k5cavyvsn-12" style="edgeStyle=orthogonalEdgeStyle;rounded=0;orthogonalLoop=1;jettySize=auto;html=1;entryX=0.5;entryY=0;entryDx=0;entryDy=0;entryPerimeter=0;" edge="1" parent="lIRGwpxtklxmiI4k7qlp-1" source="hj-Veea-2y6k5cavyvsn-9" target="hj-Veea-2y6k5cavyvsn-11">
          <mxGeometry relative="1" as="geometry" />
        </mxCell>
        <mxCell id="lIRGwpxtklxmiI4k7qlp-13" style="edgeStyle=orthogonalEdgeStyle;rounded=0;orthogonalLoop=1;jettySize=auto;html=1;dashed=1;dashPattern=8 8;endArrow=block;endFill=0;" parent="1" source="lIRGwpxtklxmiI4k7qlp-6" target="lIRGwpxtklxmiI4k7qlp-8" edge="1">
          <mxGeometry relative="1" as="geometry">
            <Array as="points">
              <mxPoint x="300" y="-610" />
              <mxPoint x="300" y="-720" />
            </Array>
          </mxGeometry>
        </mxCell>
        <mxCell id="lIRGwpxtklxmiI4k7qlp-51" style="edgeStyle=orthogonalEdgeStyle;rounded=0;orthogonalLoop=1;jettySize=auto;html=1;" parent="1" source="lIRGwpxtklxmiI4k7qlp-48" target="lIRGwpxtklxmiI4k7qlp-15" edge="1">
          <mxGeometry relative="1" as="geometry">
            <Array as="points">
              <mxPoint x="680" y="-160" />
              <mxPoint x="680" y="-420" />
            </Array>
          </mxGeometry>
        </mxCell>
        <mxCell id="lIRGwpxtklxmiI4k7qlp-52" style="edgeStyle=orthogonalEdgeStyle;rounded=0;orthogonalLoop=1;jettySize=auto;html=1;entryX=1;entryY=0.5;entryDx=0;entryDy=0;entryPerimeter=0;endArrow=classic;endFill=1;" parent="1" source="lIRGwpxtklxmiI4k7qlp-21" target="lIRGwpxtklxmiI4k7qlp-24" edge="1">
          <mxGeometry relative="1" as="geometry" />
        </mxCell>
        <mxCell id="lIRGwpxtklxmiI4k7qlp-108" style="edgeStyle=orthogonalEdgeStyle;rounded=0;orthogonalLoop=1;jettySize=auto;html=1;" parent="1" source="lIRGwpxtklxmiI4k7qlp-105" target="lIRGwpxtklxmiI4k7qlp-104" edge="1">
          <mxGeometry relative="1" as="geometry">
            <Array as="points">
              <mxPoint x="670" y="2320" />
              <mxPoint x="670" y="2580" />
            </Array>
          </mxGeometry>
        </mxCell>
        <mxCell id="lIRGwpxtklxmiI4k7qlp-116" style="edgeStyle=orthogonalEdgeStyle;rounded=0;orthogonalLoop=1;jettySize=auto;html=1;" parent="1" source="lIRGwpxtklxmiI4k7qlp-113" target="lIRGwpxtklxmiI4k7qlp-115" edge="1">
          <mxGeometry relative="1" as="geometry" />
        </mxCell>
        <mxCell id="ifjnTFT7KgHq2K2mt3Lb-5" value="Proposta - Fluxo para Pagamento em lote" style="text;html=1;align=left;verticalAlign=top;whiteSpace=wrap;rounded=0;fontSize=16;fontStyle=1" parent="1" vertex="1">
          <mxGeometry x="-460" y="-890" width="330" height="30" as="geometry" />
        </mxCell>
        <mxCell id="ujyuRZ4Cdycu08kkKVto-14" style="edgeStyle=orthogonalEdgeStyle;rounded=0;orthogonalLoop=1;jettySize=auto;html=1;entryX=0;entryY=0.5;entryDx=0;entryDy=0;entryPerimeter=0;" parent="1" source="lIRGwpxtklxmiI4k7qlp-65" target="lIRGwpxtklxmiI4k7qlp-71" edge="1">
          <mxGeometry relative="1" as="geometry" />
        </mxCell>
        <mxCell id="lIRGwpxtklxmiI4k7qlp-44" style="edgeStyle=orthogonalEdgeStyle;rounded=0;orthogonalLoop=1;jettySize=auto;html=1;entryX=1;entryY=0.5;entryDx=0;entryDy=0;entryPerimeter=0;" parent="1" source="lIRGwpxtklxmiI4k7qlp-39" target="lIRGwpxtklxmiI4k7qlp-40" edge="1">
          <mxGeometry relative="1" as="geometry" />
        </mxCell>
        <mxCell id="a4BlbPkpiTqO5UuftQ6E-1" style="edgeStyle=orthogonalEdgeStyle;rounded=0;orthogonalLoop=1;jettySize=auto;html=1;entryX=0;entryY=0.5;entryDx=0;entryDy=0;entryPerimeter=0;" parent="1" source="lIRGwpxtklxmiI4k7qlp-41" target="lIRGwpxtklxmiI4k7qlp-48" edge="1">
          <mxGeometry relative="1" as="geometry" />
        </mxCell>
        <mxCell id="a4BlbPkpiTqO5UuftQ6E-15" style="edgeStyle=orthogonalEdgeStyle;rounded=0;orthogonalLoop=1;jettySize=auto;html=1;" parent="1" source="a4BlbPkpiTqO5UuftQ6E-11" target="a4BlbPkpiTqO5UuftQ6E-13" edge="1">
          <mxGeometry relative="1" as="geometry" />
        </mxCell>
        <mxCell id="a4BlbPkpiTqO5UuftQ6E-24" style="edgeStyle=orthogonalEdgeStyle;rounded=0;orthogonalLoop=1;jettySize=auto;html=1;entryX=1;entryY=0.5;entryDx=0;entryDy=0;entryPerimeter=0;" parent="1" source="a4BlbPkpiTqO5UuftQ6E-21" target="a4BlbPkpiTqO5UuftQ6E-23" edge="1">
          <mxGeometry relative="1" as="geometry" />
        </mxCell>
        <mxCell id="a4BlbPkpiTqO5UuftQ6E-39" style="edgeStyle=orthogonalEdgeStyle;rounded=0;orthogonalLoop=1;jettySize=auto;html=1;entryX=0;entryY=0.5;entryDx=0;entryDy=0;entryPerimeter=0;" parent="1" source="a4BlbPkpiTqO5UuftQ6E-37" target="a4BlbPkpiTqO5UuftQ6E-38" edge="1">
          <mxGeometry relative="1" as="geometry" />
        </mxCell>
        <mxCell id="a4BlbPkpiTqO5UuftQ6E-45" style="edgeStyle=orthogonalEdgeStyle;rounded=0;orthogonalLoop=1;jettySize=auto;html=1;entryX=1;entryY=0.5;entryDx=0;entryDy=0;entryPerimeter=0;" parent="1" source="a4BlbPkpiTqO5UuftQ6E-42" target="a4BlbPkpiTqO5UuftQ6E-44" edge="1">
          <mxGeometry relative="1" as="geometry" />
        </mxCell>
        <mxCell id="a4BlbPkpiTqO5UuftQ6E-51" style="edgeStyle=orthogonalEdgeStyle;rounded=0;orthogonalLoop=1;jettySize=auto;html=1;entryX=1.019;entryY=0.174;entryDx=0;entryDy=0;entryPerimeter=0;" parent="1" source="a4BlbPkpiTqO5UuftQ6E-49" target="bwk8iUxbsP5TFewiAtN--1" edge="1">
          <mxGeometry relative="1" as="geometry">
            <mxPoint x="20" y="990" as="targetPoint" />
          </mxGeometry>
        </mxCell>
        <mxCell id="a4BlbPkpiTqO5UuftQ6E-55" style="edgeStyle=orthogonalEdgeStyle;rounded=0;orthogonalLoop=1;jettySize=auto;html=1;entryX=1;entryY=0.5;entryDx=0;entryDy=0;entryPerimeter=0;" parent="1" source="lIRGwpxtklxmiI4k7qlp-77" target="lIRGwpxtklxmiI4k7qlp-83" edge="1">
          <mxGeometry relative="1" as="geometry" />
        </mxCell>
        <mxCell id="kl3Dmiq_TUmMfXFTaF4l-1" value="" style="endArrow=none;dashed=1;html=1;dashPattern=1 2;strokeWidth=2;rounded=0;entryX=0;entryY=0.5;entryDx=0;entryDy=0;entryPerimeter=0;" parent="1" target="kl3Dmiq_TUmMfXFTaF4l-14" edge="1">
          <mxGeometry width="50" height="50" relative="1" as="geometry">
            <mxPoint x="680" y="-420" as="sourcePoint" />
            <mxPoint x="1350" y="-530" as="targetPoint" />
            <Array as="points">
              <mxPoint x="680" y="-480" />
            </Array>
          </mxGeometry>
        </mxCell>
        <mxCell id="kl3Dmiq_TUmMfXFTaF4l-3" value="" style="edgeStyle=elbowEdgeStyle;fontSize=12;html=1;endFill=0;startFill=0;endSize=6;startSize=6;dashed=1;dashPattern=1 2;endArrow=none;startArrow=none;rounded=0;entryX=0;entryY=0.5;entryDx=0;entryDy=0;entryPerimeter=0;" parent="1" target="kl3Dmiq_TUmMfXFTaF4l-4" edge="1">
          <mxGeometry width="160" relative="1" as="geometry">
            <mxPoint x="1070" y="120" as="sourcePoint" />
            <mxPoint x="1390" y="190" as="targetPoint" />
            <Array as="points">
              <mxPoint x="1180" y="130" />
            </Array>
          </mxGeometry>
        </mxCell>
        <mxCell id="kl3Dmiq_TUmMfXFTaF4l-8" value="" style="edgeStyle=elbowEdgeStyle;fontSize=12;html=1;endFill=0;startFill=0;endSize=6;startSize=6;dashed=1;dashPattern=1 2;endArrow=none;startArrow=none;rounded=0;" parent="1" edge="1">
          <mxGeometry width="160" relative="1" as="geometry">
            <mxPoint x="660" y="165" as="sourcePoint" />
            <mxPoint x="1070" y="120" as="targetPoint" />
            <Array as="points">
              <mxPoint x="660" y="190" />
            </Array>
          </mxGeometry>
        </mxCell>
        <mxCell id="kl3Dmiq_TUmMfXFTaF4l-10" style="edgeStyle=orthogonalEdgeStyle;rounded=0;orthogonalLoop=1;jettySize=auto;html=1;entryX=0;entryY=0.5;entryDx=0;entryDy=0;entryPerimeter=0;dashed=1;dashPattern=1 2;endArrow=none;endFill=0;" parent="1" source="lIRGwpxtklxmiI4k7qlp-16" target="kl3Dmiq_TUmMfXFTaF4l-12" edge="1">
          <mxGeometry relative="1" as="geometry" />
        </mxCell>
        <mxCell id="kl3Dmiq_TUmMfXFTaF4l-16" value="" style="group;pointerEvents=0;align=center;verticalAlign=middle;fontFamily=Helvetica;fontSize=12;fillColor=none;rounded=0;shadow=0;glass=0;autosize=0;collapsible=1;textShadow=0;strokeColor=none;" parent="1" vertex="1" connectable="0">
          <mxGeometry x="1340" y="-120" width="710" height="250" as="geometry">
            <mxRectangle x="1350" y="-40" width="50" height="40" as="alternateBounds" />
          </mxGeometry>
        </mxCell>
        <mxCell id="kl3Dmiq_TUmMfXFTaF4l-4" value="" style="html=1;shape=mxgraph.flowchart.annotation_2;align=center;labelPosition=right;pointerEvents=0;verticalAlign=top;fontFamily=Helvetica;fontSize=12;fontColor=default;fillColor=none;gradientColor=none;rounded=0;shadow=0;glass=0;autosize=0;" parent="kl3Dmiq_TUmMfXFTaF4l-16" vertex="1">
          <mxGeometry width="40" height="240" as="geometry" />
        </mxCell>
        <mxCell id="kl3Dmiq_TUmMfXFTaF4l-15" value="&lt;font style=&quot;font-size: 15px;&quot;&gt;Possíveis erros síncronos&lt;/font&gt;&lt;div&gt;&lt;font style=&quot;font-size: 15px;&quot;&gt;POST&amp;nbsp; /draft-payments&lt;br&gt;&lt;br&gt;&lt;/font&gt;&lt;/div&gt;&lt;div&gt;&lt;font style=&quot;font-size: 15px;&quot;&gt;&lt;table style=&quot;border-collapse:&lt;br/&gt; collapse;width:209pt&quot; width=&quot;279&quot; cellspacing=&quot;0&quot; cellpadding=&quot;0&quot; border=&quot;0&quot;&gt; &lt;colgroup&gt;&lt;col style=&quot;mso-width-source:userset;mso-width-alt:10203;width:209pt&quot; width=&quot;279&quot;&gt;&lt;/colgroup&gt; &lt;tbody&gt;&lt;tr style=&quot;height:15.0pt&quot; height=&quot;20&quot;&gt;  &lt;td style=&quot;height:15.0pt;width:209pt&quot; width=&quot;279&quot; class=&quot;xl65&quot; height=&quot;20&quot;&gt;&lt;span style=&quot;background-color: initial;&quot;&gt;DATA_PAGAMENTO_INVALIDA&lt;/span&gt;&lt;br&gt;&lt;/td&gt; &lt;/tr&gt; &lt;tr style=&quot;mso-height-source:userset;height:21.75pt&quot; height=&quot;29&quot;&gt;  &lt;td style=&quot;height:21.75pt;width:209pt&quot; width=&quot;279&quot; class=&quot;xl65&quot; height=&quot;29&quot;&gt;&lt;span style=&quot;background-color: initial;&quot;&gt;DETALHE_PAGAMENTO_INVALIDO&lt;/span&gt;&lt;br&gt;&lt;/td&gt; &lt;/tr&gt; &lt;tr style=&quot;mso-height-source:userset;height:24.75pt&quot; height=&quot;33&quot;&gt;  &lt;td style=&quot;height:24.75pt;width:209pt&quot; width=&quot;279&quot; class=&quot;xl65&quot; height=&quot;33&quot;&gt;&lt;span style=&quot;background-color: initial;&quot;&gt;PARAMETRO_NAO_INFORMADO&lt;/span&gt;&lt;br&gt;&lt;/td&gt; &lt;/tr&gt; &lt;tr style=&quot;height:15.0pt&quot; height=&quot;20&quot;&gt;  &lt;td style=&quot;height:15.0pt;width:209pt&quot; width=&quot;279&quot; class=&quot;xl65&quot; height=&quot;20&quot;&gt;&lt;span style=&quot;background-color: initial;&quot;&gt;PARAMETRO_INVALIDO&lt;/span&gt;&lt;br&gt;&lt;/td&gt; &lt;/tr&gt; &lt;tr style=&quot;height:24.0pt&quot; height=&quot;32&quot;&gt;  &lt;td style=&quot;height:24.0pt;width:209pt&quot; width=&quot;279&quot; class=&quot;xl65&quot; height=&quot;32&quot;&gt;&lt;span style=&quot;background-color: initial;&quot;&gt;ERRO_IDEMPOTENCIA&lt;/span&gt;&lt;br&gt;&lt;/td&gt; &lt;/tr&gt; &lt;tr style=&quot;height:15.0pt&quot; height=&quot;20&quot;&gt;  &lt;td style=&quot;height:15.0pt;width:209pt&quot; width=&quot;279&quot; class=&quot;xl65&quot; height=&quot;20&quot;&gt;&lt;span style=&quot;background-color: initial;&quot;&gt;QUANTIDADE_TOTAL_ATINGIDA&lt;/span&gt;&lt;br&gt;&lt;/td&gt; &lt;/tr&gt;&lt;/tbody&gt;&lt;/table&gt;&lt;/font&gt;&lt;/div&gt;" style="text;html=1;align=left;verticalAlign=top;whiteSpace=wrap;rounded=0;fillColor=#e1d5e7;fontFamily=Helvetica;fontSize=12;autosize=0;textShadow=1;strokeColor=#9673a6;" parent="kl3Dmiq_TUmMfXFTaF4l-16" vertex="1">
          <mxGeometry x="30" y="8.03" width="680" height="221.97" as="geometry" />
        </mxCell>
        <mxCell id="kl3Dmiq_TUmMfXFTaF4l-18" value="" style="group;pointerEvents=0;align=center;verticalAlign=top;fontFamily=Helvetica;fontSize=14;fillColor=none;rounded=0;shadow=0;glass=0;autosize=0;collapsible=1;strokeColor=none;" parent="1" vertex="1" connectable="0">
          <mxGeometry x="1330" y="-380" width="660" height="220" as="geometry">
            <mxRectangle x="1330" y="-380" width="50" height="40" as="alternateBounds" />
          </mxGeometry>
        </mxCell>
        <mxCell id="kl3Dmiq_TUmMfXFTaF4l-9" value="&lt;font style=&quot;font-size: 15px;&quot;&gt;Possíveis erros assíncronos&lt;br&gt;GET /consents/{consentId}&lt;br&gt;&lt;br&gt;&lt;br&gt;NAO_INFORMADO&lt;br&gt;  FALHA_INFRAESTRUTURA&lt;br&gt;  TEMPO_EXPIRADO_AUTORIZACAO&lt;br&gt;  REJEITADO_USUARIO&lt;br&gt;  CONTA_NAO_PERMITE_PAGAMENTO&lt;/font&gt;" style="text;align=left;verticalAlign=middle;rounded=0;fillColor=#e1d5e7;horizontal=1;textDirection=ltr;labelPosition=center;verticalLabelPosition=middle;html=1;whiteSpace=wrap;fontFamily=Helvetica;fontSize=12;autosize=0;textShadow=1;strokeColor=#9673a6;" parent="kl3Dmiq_TUmMfXFTaF4l-18" vertex="1">
          <mxGeometry x="28" y="16.905263157894733" width="632" height="183.09473684210525" as="geometry" />
        </mxCell>
        <mxCell id="kl3Dmiq_TUmMfXFTaF4l-12" value="" style="html=1;shape=mxgraph.flowchart.annotation_2;align=center;labelPosition=right;pointerEvents=0;verticalAlign=top;fontFamily=Helvetica;fontSize=12;fontColor=default;fillColor=none;gradientColor=none;rounded=0;shadow=0;glass=0;autosize=0;" parent="kl3Dmiq_TUmMfXFTaF4l-18" vertex="1">
          <mxGeometry y="10.53" width="40" height="199.47" as="geometry" />
        </mxCell>
        <mxCell id="kl3Dmiq_TUmMfXFTaF4l-24" value="" style="edgeStyle=elbowEdgeStyle;fontSize=12;html=1;endFill=0;startFill=0;endSize=6;startSize=6;dashed=1;dashPattern=1 4;endArrow=none;startArrow=none;rounded=0;" parent="1" edge="1">
          <mxGeometry width="160" relative="1" as="geometry">
            <mxPoint x="660" y="230" as="sourcePoint" />
            <mxPoint x="659.666666666667" y="165" as="targetPoint" />
            <Array as="points" />
          </mxGeometry>
        </mxCell>
        <mxCell id="kl3Dmiq_TUmMfXFTaF4l-29" value="" style="group" parent="1" vertex="1" connectable="0">
          <mxGeometry x="80" y="600" width="173.5" height="100" as="geometry" />
        </mxCell>
        <mxCell id="a4BlbPkpiTqO5UuftQ6E-34" value="Deve-se mudar de AWAITING_CONFIGURATION para AWATING_AUTHORISATION" style="text;html=1;strokeColor=none;fillColor=none;align=center;verticalAlign=middle;whiteSpace=wrap;rounded=0;fontSize=11;" parent="kl3Dmiq_TUmMfXFTaF4l-29" vertex="1">
          <mxGeometry width="123" height="100" as="geometry" />
        </mxCell>
        <mxCell id="a4BlbPkpiTqO5UuftQ6E-35" value="" style="html=1;shape=mxgraph.flowchart.annotation_2;align=left;labelPosition=right;rotation=-180;" parent="kl3Dmiq_TUmMfXFTaF4l-29" vertex="1">
          <mxGeometry x="104" y="20" width="69.5" height="65" as="geometry" />
        </mxCell>
        <mxCell id="gsVnzrqlhjnDvrE1OzXL-4" value="" style="endArrow=none;dashed=1;html=1;dashPattern=1 2;strokeWidth=2;rounded=0;entryX=0;entryY=0.5;entryDx=0;entryDy=0;entryPerimeter=0;jumpStyle=arc;jumpSize=10;" parent="1" target="gsVnzrqlhjnDvrE1OzXL-3" edge="1">
          <mxGeometry width="50" height="50" relative="1" as="geometry">
            <mxPoint x="660" y="700" as="sourcePoint" />
            <mxPoint x="580" y="800" as="targetPoint" />
            <Array as="points">
              <mxPoint x="660" y="620" />
            </Array>
          </mxGeometry>
        </mxCell>
        <mxCell id="gsVnzrqlhjnDvrE1OzXL-2" value="&lt;pre style=&quot;line-height: 194%; font-size: 15px;&quot;&gt;&lt;font style=&quot;font-size: 15px;&quot; face=&quot;Verdana&quot;&gt;&lt;font style=&quot;font-size: 15px;&quot;&gt;Possíveis erros Síncronos&lt;br&gt;&lt;/font&gt;PATCH /consents&lt;/font&gt;&lt;/pre&gt;&lt;pre style=&quot;line-height: 194%; font-size: 15px;&quot;&gt;&lt;font style=&quot;font-size: 15px;&quot; face=&quot;Verdana&quot;&gt;CONSENTIMENTO_NAO_PERMITE_CANCELAMENTO&lt;br/&gt;CONFIGURACAO_RASCUNHOS_INVALIDA&lt;br/&gt;FALHA_INFRAESTRUTURA&lt;br/&gt;PARAMETRO_NAO_INFORMADO&lt;br/&gt;PARAMETRO_INVÁLIDO&lt;br/&gt;ERRO_IDEMPOTENCIA&lt;/font&gt;&lt;/pre&gt;&lt;br&gt;&lt;p&gt;&lt;/p&gt;" style="text;html=1;strokeColor=default;fillColor=#e1d5e7;align=left;verticalAlign=middle;whiteSpace=wrap;rounded=0;fillStyle=auto;fontFamily=Helvetica;fontSize=12;autosize=0;labelBorderColor=none;textShadow=1;" parent="1" vertex="1">
          <mxGeometry x="1377.14" y="456.86" width="627.72" height="291" as="geometry" />
        </mxCell>
        <mxCell id="gsVnzrqlhjnDvrE1OzXL-3" value="" style="html=1;shape=mxgraph.flowchart.annotation_2;align=left;labelPosition=right;" parent="1" vertex="1">
          <mxGeometry x="1350" y="450" width="37.74647887323944" height="304.71808783635163" as="geometry" />
        </mxCell>
        <mxCell id="gsVnzrqlhjnDvrE1OzXL-6" value="" style="group;fillColor=none;strokeColor=none;" parent="1" vertex="1" connectable="0">
          <mxGeometry x="1330" y="-775" width="450" height="295" as="geometry" />
        </mxCell>
        <mxCell id="kl3Dmiq_TUmMfXFTaF4l-2" value="&lt;pre style=&quot;line-height: 194%; font-size: 15px;&quot;&gt;&lt;font style=&quot;font-size: 15px;&quot; face=&quot;Verdana&quot;&gt;&lt;font style=&quot;font-size: 15px;&quot;&gt;Possíveis erros síncronos &lt;br&gt;&lt;/font&gt;&lt;font style=&quot;font-size: 15px;&quot;&gt;POST /consents&lt;/font&gt;&lt;/font&gt;&lt;/pre&gt;&lt;table border=&quot;0&quot; cellpadding=&quot;0&quot; cellspacing=&quot;0&quot; width=&quot;256&quot; style=&quot;width: 192pt; font-size: 15px;&quot;&gt; &lt;colgroup&gt;&lt;col width=&quot;256&quot; style=&quot;mso-width-source:userset;mso-width-alt:9362;width:192pt&quot;&gt;&lt;/colgroup&gt; &lt;tbody&gt;&lt;tr height=&quot;20&quot; style=&quot;height:15.0pt&quot;&gt;  &lt;td height=&quot;20&quot; class=&quot;xl63&quot; width=&quot;256&quot; style=&quot;height:15.0pt;width:192pt&quot;&gt;&lt;br&gt;&lt;table style=&quot;border-collapse:&lt;br/&gt; collapse;width:209pt&quot; width=&quot;279&quot; cellspacing=&quot;0&quot; cellpadding=&quot;0&quot; border=&quot;0&quot;&gt; &lt;colgroup&gt;&lt;col style=&quot;mso-width-source:userset;mso-width-alt:10203;width:209pt&quot; width=&quot;279&quot;&gt;&lt;/colgroup&gt; &lt;tbody&gt;&lt;tr style=&quot;height:15.0pt&quot; height=&quot;20&quot;&gt;  &lt;td style=&quot;height:15.0pt;width:209pt&quot; width=&quot;279&quot; class=&quot;xl65&quot; height=&quot;20&quot;&gt;DATA_PAGAMENTO_INVALIDA&lt;/td&gt; &lt;/tr&gt; &lt;tr style=&quot;height:15.0pt&quot; height=&quot;20&quot;&gt;  &lt;td style=&quot;height:15.0pt;width:209pt&quot; width=&quot;279&quot; class=&quot;xl65&quot; height=&quot;20&quot;&gt;DETALHE_PAGAMENTO_INVALIDO&lt;/td&gt; &lt;/tr&gt; &lt;tr style=&quot;height:15.0pt&quot; height=&quot;20&quot;&gt;  &lt;td style=&quot;height:15.0pt;width:209pt&quot; width=&quot;279&quot; class=&quot;xl65&quot; height=&quot;20&quot;&gt;PARAMETRO_NAO_INFORMADO&lt;/td&gt; &lt;/tr&gt; &lt;tr style=&quot;height:15.0pt&quot; height=&quot;20&quot;&gt;  &lt;td style=&quot;height:15.0pt;width:209pt&quot; width=&quot;279&quot; class=&quot;xl65&quot; height=&quot;20&quot;&gt;PARAMETRO_INVALIDO&lt;/td&gt; &lt;/tr&gt; &lt;tr style=&quot;height:24.0pt&quot; height=&quot;32&quot;&gt;  &lt;td style=&quot;height:24.0pt;width:209pt&quot; width=&quot;279&quot; class=&quot;xl65&quot; height=&quot;32&quot;&gt;ERRO_IDEMPOTENCIA&lt;/td&gt; &lt;/tr&gt; &lt;tr style=&quot;height:15.0pt&quot; height=&quot;20&quot;&gt;  &lt;td style=&quot;height:15.0pt;width:209pt&quot; width=&quot;279&quot; class=&quot;xl65&quot; height=&quot;20&quot;&gt;NAO_INFORMADO&lt;/td&gt; &lt;/tr&gt; &lt;tr style=&quot;height:24.0pt&quot; height=&quot;32&quot;&gt;  &lt;td style=&quot;height:24.0pt;width:209pt&quot; width=&quot;279&quot; class=&quot;xl65&quot; height=&quot;32&quot;&gt;CONSENTIMENTO_NAO_PERMITE_CANCELAMENTO&lt;/td&gt; &lt;/tr&gt;&lt;/tbody&gt;&lt;/table&gt;&lt;/td&gt;&lt;/tr&gt;&lt;/tbody&gt;&lt;/table&gt;&lt;p&gt;&lt;/p&gt;" style="text;html=1;strokeColor=#9673a6;fillColor=#e1d5e7;align=left;verticalAlign=middle;whiteSpace=wrap;rounded=0;fillStyle=auto;textShadow=1;" parent="gsVnzrqlhjnDvrE1OzXL-6" vertex="1">
          <mxGeometry x="19.014084507042256" y="17.5" width="430.98591549295776" height="263.5" as="geometry" />
        </mxCell>
        <mxCell id="kl3Dmiq_TUmMfXFTaF4l-14" value="" style="html=1;shape=mxgraph.flowchart.annotation_2;align=left;labelPosition=right;" parent="gsVnzrqlhjnDvrE1OzXL-6" vertex="1">
          <mxGeometry width="25.35211267605634" height="295" as="geometry" />
        </mxCell>
        <mxCell id="hj-Veea-2y6k5cavyvsn-10" style="edgeStyle=orthogonalEdgeStyle;rounded=0;orthogonalLoop=1;jettySize=auto;html=1;entryX=1;entryY=0.5;entryDx=0;entryDy=0;entryPerimeter=0;" edge="1" parent="1" source="hj-Veea-2y6k5cavyvsn-4" target="hj-Veea-2y6k5cavyvsn-9">
          <mxGeometry relative="1" as="geometry">
            <Array as="points">
              <mxPoint x="300" y="2300" />
              <mxPoint x="300" y="2300" />
            </Array>
          </mxGeometry>
        </mxCell>
        <mxCell id="hj-Veea-2y6k5cavyvsn-15" value="" style="group" vertex="1" connectable="0" parent="1">
          <mxGeometry x="168.26" y="1990" width="60" height="153" as="geometry" />
        </mxCell>
        <mxCell id="hj-Veea-2y6k5cavyvsn-17" value="" style="html=1;shape=mxgraph.flowchart.annotation_2;align=left;labelPosition=right;direction=west;" vertex="1" parent="hj-Veea-2y6k5cavyvsn-15">
          <mxGeometry y="33" width="21.73913043478261" height="90" as="geometry" />
        </mxCell>
        <mxCell id="hj-Veea-2y6k5cavyvsn-28" value="Envia o comprovante do pagamento" style="points=[[0.25,0,0],[0.5,0,0],[0.75,0,0],[1,0.25,0],[1,0.5,0],[1,0.75,0],[0.75,1,0],[0.5,1,0],[0.25,1,0],[0,0.75,0],[0,0.5,0],[0,0.25,0]];shape=mxgraph.bpmn.task;whiteSpace=wrap;rectStyle=rounded;size=10;html=1;container=1;expand=0;collapsible=0;taskMarker=script;" vertex="1" parent="1">
          <mxGeometry x="-700" y="2230" width="120" height="80" as="geometry" />
        </mxCell>
        <mxCell id="hj-Veea-2y6k5cavyvsn-16" value="Loop até que os pagamentos enviados estejam no status ACSC" style="text;html=1;strokeColor=none;fillColor=none;align=left;verticalAlign=middle;whiteSpace=wrap;rounded=0;" vertex="1" parent="1">
          <mxGeometry x="81" y="1990.5" width="110" height="150" as="geometry" />
        </mxCell>
        <mxCell id="hj-Veea-2y6k5cavyvsn-35" style="edgeStyle=orthogonalEdgeStyle;rounded=0;orthogonalLoop=1;jettySize=auto;html=1;entryX=1;entryY=0.5;entryDx=0;entryDy=0;startArrow=none;startFill=0;endArrow=none;endFill=0;dashed=1;dashPattern=1 2;" edge="1" parent="1" source="hj-Veea-2y6k5cavyvsn-14" target="hj-Veea-2y6k5cavyvsn-16">
          <mxGeometry relative="1" as="geometry" />
        </mxCell>
      </root>
    </mxGraphModel>
  </diagram>
</mxfile>
